<svg xmlns="http://www.w3.org/2000/svg" viewBox="0 0 775.22 476.64"><defs><style>.cls-1{fill:#55c9ec;}</style></defs><g id="Layer_2" data-name="Layer 2"><g id="Layer_1-2" data-name="Layer 1"><path class="cls-1" d="M107,362.81a14.24,14.24,0,0,1-.56,4.09c-.37,1.23-.76,2.55-1.17,4l-3.1,11.51q-2.47,9-4.94,18.31t-4.52,18.75q-2,9.46-3.34,19a138.41,138.41,0,0,0-1.3,18.8c0,2.39,0,4.83.12,7.3a36.44,36.44,0,0,0,1,7.3,11.31,11.31,0,0,0,.75,2.35,12.36,12.36,0,0,1,.74,2.35,5.34,5.34,0,0,1-1.11.13H88.46a7.37,7.37,0,0,1-4.64-1.49,9.2,9.2,0,0,1-2.91-4,46.08,46.08,0,0,1-1.54-5.75c-.46-2.19-.83-4.45-1.12-6.8s-.49-4.66-.61-6.93-.19-4.27-.19-6a53.48,53.48,0,0,1,.31-5.76q.3-2.9.56-5.75c.16-1.65.32-3.34.49-5.07s.37-3.42.62-5.07a133.94,133.94,0,0,1,3.46-16.27q2.23-8,4.33-16c.17-.57.42-1.44.75-2.59s.68-2.36,1-3.59.7-2.41,1-3.53a10.87,10.87,0,0,0,.43-2.29l-1.36,1.86q-4.83,6.81-9.4,13.86T70.89,409.7q-2.85,4.95-5.32,10.21T61,430.61a3.83,3.83,0,0,0-.25,1.12,3.75,3.75,0,0,0,.31,1.48,4,4,0,0,1,.31,1.49,1,1,0,0,1-.56.92,2.34,2.34,0,0,1-1.18.31,2,2,0,0,1-1.23-.37l-.5.62-1.48-.49c-.5-.17-1-.33-1.36-.5a5.74,5.74,0,0,1-3.1-3,16.47,16.47,0,0,1-1.36-4.58,28.83,28.83,0,0,1-.31-5c0-1.69.06-3.15.06-4.39q0-9.76.56-19.42t1.55-19.3q-5.57,10.38-10.21,21t-8.47,21.77a108.67,108.67,0,0,0-3.47,13.61l-.25,1.12-1.36.12a4.49,4.49,0,0,1-.12-1.24,11.15,11.15,0,0,1,.19-2c.12-.7.26-1.38.43-2a73.43,73.43,0,0,1,4.58-15.09q3.09-7.31,6.06-14.6a27.18,27.18,0,0,1,1.36-3A25.21,25.21,0,0,0,42.56,396l.25-.87A40,40,0,0,1,45.16,390a36.89,36.89,0,0,0,2.35-5.19q-1.36,2.48-2.47,5.07c-.75,1.73-1.53,3.42-2.36,5.07q-3.33,7-6.18,14.29t-5.57,14.66a43.18,43.18,0,0,0-2.72,12,3.51,3.51,0,0,1-.06.68c0,.21-.11.44-.19.68l-.62-.49-1.23,1.36a25.39,25.39,0,0,0-2.29-1.11,8.08,8.08,0,0,1-2.17-1.36,14.83,14.83,0,0,1-2.35-2.79,21.58,21.58,0,0,1-1.92-3.59,21.94,21.94,0,0,1-1.23-3.89,16.93,16.93,0,0,1-.44-3.59,72.2,72.2,0,0,1,.81-10.64,110.29,110.29,0,0,1,2.16-10.89q1.37-5.44,3.1-10.7t3.58-10.08q1.49-4,3.22-7.67c1.15-2.48,2.27-5,3.34-7.55a8.2,8.2,0,0,0-2.17.68c-1.11.45-2.43,1-3.95,1.79s-3.2,1.55-5,2.41-3.61,1.67-5.39,2.42a53.91,53.91,0,0,1-5.07,1.85,14.34,14.34,0,0,1-4.14.75,5.17,5.17,0,0,1-4.09-1.86A9.28,9.28,0,0,1,0,368.26a.89.89,0,0,1,.87-.74,1.92,1.92,0,0,1,1,.3,2.22,2.22,0,0,0,1.23.31,20.6,20.6,0,0,0,6.37-1.48q4.15-1.48,8.66-3.47t8.67-4.08q4.14-2.1,6.49-3.22c1.65-.82,3.24-1.67,4.76-2.53s3.12-1.67,4.77-2.41l1,1.6h.62l1.6,2.73-.12.49a4.6,4.6,0,0,1,.68.87,2,2,0,0,1,.31,1.11,13.41,13.41,0,0,1-1.11,3q-1.11,2.53-2.48,5.57c-.91,2-1.81,4-2.72,5.88a39.81,39.81,0,0,0-1.73,4q-3.72,9.76-6.93,19.67a119.84,119.84,0,0,0-4.7,20.41c-.17.91-.31,1.86-.43,2.85A21.84,21.84,0,0,0,26.6,422q4.83-12.49,10.15-24.56T48.62,373.7c1-1.81,2-3.61,3.16-5.38a24.29,24.29,0,0,1,3.89-4.76c.75-.66,1.51-1.28,2.29-1.86s1.59-1.19,2.42-1.86l1.11.62-.12.87.86-.74,1.36.37-2.1,5h.12L64,361.33l.38,1,.86-.74-2.84,9.52.37.13c.49-1.41.94-2.85,1.36-4.33a21.39,21.39,0,0,1,1.73-4.33l1.61,1.11v1.61a6.34,6.34,0,0,1-.19,1.23c-.12.58-.24,1.18-.37,1.8s-.25,1.24-.37,1.85-.23,1.1-.31,1.43c-.49,2.39-.93,4.78-1.3,7.17s-.72,4.79-1,7.18l-2.72,23.38a13.88,13.88,0,0,0-.25,2.54v2.54a6,6,0,0,0,.87-1.24l1-1.86q.55-1,1.05-2c.33-.66.62-1.19.87-1.61q1.85-3.21,4-6.37t4.2-6.25Q77,389.17,81,383.41T89.33,372a44.18,44.18,0,0,1,3.09-3.9,41.43,41.43,0,0,0,3.09-3.9A15.92,15.92,0,0,0,96.88,362a11.4,11.4,0,0,1,1.48-2.17,4.68,4.68,0,0,1,.93-.92,2,2,0,0,1,1.17-.31,3.5,3.5,0,0,1,1.61.37,5.11,5.11,0,0,0,1.61.49l-.12.25L105,361l.12.86.5-.37ZM17.57,368.5a.39.39,0,0,0,.25-.12c-.09,0-.13,0-.13.06S17.65,368.5,17.57,368.5Zm8.54-7.3-.13-.12v.12Zm.61,66.94v-.81a2.36,2.36,0,0,1,.13-.8,1.29,1.29,0,0,0-.25.74,1.32,1.32,0,0,1-.25.75A.5.5,0,0,1,26.72,428.14Zm.37,5.44a.74.74,0,0,1,.07-.37.86.86,0,0,0,.06-.37,1.85,1.85,0,0,0-.25.74Zm4.21-71.39a7.33,7.33,0,0,0-1.85.75q-.87.49-1.86,1l3.46-1.49Zm-3.71,61.87a5.9,5.9,0,0,1,.87-1.61l-.38.12Zm.37,9-.12.12H28Zm.25-4.7-.13-.13v.5Zm1.48-9.78a.94.94,0,0,0-.55.74c-.05.33-.11.67-.19,1Zm.13,14.85-.13.12h.13Zm1.23-18.31a.86.86,0,0,0-.61.86v.38ZM30.93,420l-.12-.12V420Zm0,8.79h-.12v.12Zm.74-11h-.12l.12.12Zm.13-55.68a5,5,0,0,0,1.61-.62.67.67,0,0,1-.13-.49,5.79,5.79,0,0,1-.74.62ZM33,414.28h-.12l.12.13Zm3.72-8.66-.13-.12v.12Zm4.94-15.34c0-.08,0-.12.07-.12s.06,0,.06-.13A.41.41,0,0,0,41.69,390.28Zm.5-1.11.43-.87a7.19,7.19,0,0,1,.44-.74c-.42.16-.64.39-.68.68S42.27,388.84,42.19,389.17Zm2.35-5.2a2.41,2.41,0,0,0,1-1.18,8,8,0,0,0,.37-1.42,11.66,11.66,0,0,1-.62,1.3C45,383.12,44.79,383.56,44.54,384Zm1.86-3.46a.75.75,0,0,0,.49-.25Zm7.17-6.93h-.12a.7.7,0,0,0-.13.49Zm0-4.95-.12-.13v.13Zm3.84,49h-.13V418h.13Zm0,1.24h-.13v.87h.13Zm0,2.1h-.13v1.24h.13Zm.12-6.18q.75-8.29,1.55-16.52t1.67-16.52l-.37.5q-.63,4.08-1.05,8.16t-.81,8.17c-.17,1.9-.37,4-.62,6.19a55.4,55.4,0,0,0-.37,6.18Zm.12,1h-.12v.37h.12Zm3-35a1.2,1.2,0,0,0,.07.44,1.35,1.35,0,0,1,.06.43l1.11-5.69-.37-.13c-.17.75-.35,1.57-.56,2.48A11.65,11.65,0,0,0,60.62,380.75Zm1.24-5.81H62v-.74h-.12Zm.25-1.86.25.13a3,3,0,0,1,.06-.56,3,3,0,0,0,.06-.56h-.12Zm5.32,39.1H67.3l-.12.37Zm15.22-24.25h-.13c0,.08,0,.12.13.12Zm4.2,42.93h-.12v.49h.12Zm.25-1.36a.76.76,0,0,1,.12-.5H87v.5Zm.87-4.83a.39.39,0,0,0-.25-.12v.5l-.25,1h.25v-1Zm.37-1.48a10.85,10.85,0,0,1,.24-1.86h-.24L88,423.07Zm.49-2.85a5.52,5.52,0,0,1,.06-.86c0-.25.11-.54.19-.87l-.62,1.73Zm.5-3.09a.5.5,0,0,0,.12-.37l-.12-.12Zm.49-1.86-.24.5.24.12Zm.37-1.48a.36.36,0,0,1,.13-.25h-.13Zm.87-3-.74,1.24a.35.35,0,0,0,.24.12Zm1.36-6.31-.12.13h.12Zm.74-2.47a.38.38,0,0,0,.13-.25l-.13-.12Zm1.24-4.09h-.12l-.25.37Zm9.9-34.39a2.68,2.68,0,0,0,.43-.56,1.31,1.31,0,0,0,.19-.68c-.09,0-.13,0-.13-.12v-.25Z"/><path class="cls-1" d="M127.19,414.65l1-1-.13.75.37-.75h-.24l.24-.37v.37l.25-.49h.12l.5-.87.25.13a50,50,0,0,1-4.27,8.29q-2.53,4-5,7.91c-.91,1.49-1.82,3-2.72,4.52s-1.86,3-2.85,4.39c-1.24,1.82-2.74,3.9-4.52,6.25s-3.36,4.31-4.76,5.88a2.5,2.5,0,0,1-1.17.74,6.32,6.32,0,0,1-1.3.12,6.79,6.79,0,0,1-4.46-1.42,5.22,5.22,0,0,1-1.73-4.27,53.91,53.91,0,0,1,1-10.21q1-5.13,2.35-9.83c.66-2.48,1.28-4.95,1.86-7.43a47.43,47.43,0,0,0,1.11-7.54v-.5a2.41,2.41,0,0,0-.18-.93,2.17,2.17,0,0,1-.19-.92.59.59,0,0,1,.43-.56c.29-.12.52-.23.68-.31a14.9,14.9,0,0,1,7,2.85q2.91,2.22,2.91,6.68a23,23,0,0,1-1,6.8c-.66,2.15-1.32,4.33-2,6.56L108,438.65c0,.09,0,.13-.06.13s-.06,0-.06.12V439l.12.24a81.09,81.09,0,0,0,4.89-6.74q2.28-3.52,4.64-7a35.17,35.17,0,0,1,3-4c1.08-1.24,2.11-2.51,3.1-3.83a12.94,12.94,0,0,0,1.54-2.23,9.89,9.89,0,0,1,1.68-2.23l-.62,1.12.86-1c-1,1.65-2,3.27-3.15,4.88a32,32,0,0,0-2.91,5.14l1.24-1.49a10.92,10.92,0,0,0,1.11-1.61,30.5,30.5,0,0,0,1.79-3.34,10.87,10.87,0,0,1,2.17-3.09Zm-24.5,30.69h.25q1.35-5.44,2.9-10.77t3-10.76a15.2,15.2,0,0,0-1.61,4.14c-.33,1.45-.7,2.87-1.12,4.27-.66,2.15-1.32,4.31-2,6.5A46.13,46.13,0,0,0,102.69,445.34Zm8.66-57.16.62.12v.87a2.51,2.51,0,0,0,.86-.62l1.24.62-.25.86,1.49.25v1.24l.62-.13a2.54,2.54,0,0,1,1.24,2.11,13.31,13.31,0,0,1-.69,4.27,13.48,13.48,0,0,0-.68,4.26,12.28,12.28,0,0,0,.25,2.48,12.18,12.18,0,0,1,.25,2.47,2.23,2.23,0,0,1-1.11.37A2.06,2.06,0,0,1,114,407a1.52,1.52,0,0,0-1.18-.25,7,7,0,0,1-2.1-1.91,19.38,19.38,0,0,1-1.79-2.85,16,16,0,0,1-1.24-3.09,10.74,10.74,0,0,1-.43-2.91,13.09,13.09,0,0,1,.24-2.1,16.94,16.94,0,0,1,.75-2.72,11.58,11.58,0,0,1,1.17-2.42,1.89,1.89,0,0,1,1.55-1.05Zm-4,53.44a7.63,7.63,0,0,1,.62-.55c.25-.21.45-.39.62-.56q3.7-5.56,7.42-10.95l7.55-10.95-3,3.22a18.5,18.5,0,0,0-2.48,3.34q-1.61,2.59-3.27,5.13t-3.28,5.14a27.68,27.68,0,0,1-2.17,3A17,17,0,0,0,107.39,441.62Zm1.86-19.17H109v.74a.43.43,0,0,0,.12-.31A.91.91,0,0,1,109.25,422.45Zm4,14a1,1,0,0,0-.68.49,7.31,7.31,0,0,1-.44.75Zm1.6-2.11c-.82.17-1.23.54-1.23,1.12v.25Zm3.47-4.82.49-.37c.17-.33.33-.64.5-.93a8.78,8.78,0,0,0,.49-1.05,4.63,4.63,0,0,1-.68,1.17A13.57,13.57,0,0,0,118.28,429.5Zm3.22-4,.37-.37a.5.5,0,0,1-.37-.12c.16-.33.3-.64.43-.93s.26-.6.43-.93l-1.48,2.1.62-.24Zm2.59-4.33h-.24l.37-.62v-.49A9.3,9.3,0,0,0,123.1,422l.5-.25.25-.49a.73.73,0,0,1,.12.49A.71.71,0,0,0,124.09,421.21Zm-.49.87.37-.38h-.25A.54.54,0,0,0,123.6,422.08Zm.74-1.36h-.12V421A.35.35,0,0,0,124.34,420.72Zm.87-1.61a1.83,1.83,0,0,1,.12-.68,1.91,1.91,0,0,0,.12-.68l-1.11,2.1.5-.25V420l.24-.37h-.24Zm0,0v.37l.24-.37a.73.73,0,0,1,.13-.5h-.13v.5Zm2-4.46a1.43,1.43,0,0,1-.5,1l.5-.12.12-.5Zm.37.74-.25.13-.12.37Zm-.25-1.48a7,7,0,0,0,.37-.87c.08-.24.17-.53.25-.86l.25.12A4.61,4.61,0,0,1,127.31,413.91Zm1.24-.74V413h-.13v.25Zm.12-.5V413h-.12Zm.12.37h-.12v.13Z"/><path class="cls-1" d="M143,433.83l1-1a1.92,1.92,0,0,0,1,.62,5.57,5.57,0,0,0-.43.8,5.19,5.19,0,0,1-.43.81,8.6,8.6,0,0,1-2.24,2.16,30.32,30.32,0,0,1-3.22,2,20,20,0,0,1-3.53,1.49,10.08,10.08,0,0,1-8.25-.75,13.71,13.71,0,0,1-4-3.34,14.22,14.22,0,0,1-2.54-4.7,16.8,16.8,0,0,1-.87-5.26,29.1,29.1,0,0,1,1.12-7.23,37.33,37.33,0,0,1,3.23-8.23,27.22,27.22,0,0,1,5-6.74,9,9,0,0,1,6.47-2.79,10.55,10.55,0,0,1,6.65,2.41,17.26,17.26,0,0,1,4.66,5.51,5.3,5.3,0,0,1,.61,2.35,9.12,9.12,0,0,1-.49,3,9.17,9.17,0,0,0-.49,3,5.15,5.15,0,0,0,.3,1.8,15.21,15.21,0,0,1,.56,1.79,7.27,7.27,0,0,1-4.79-2.41,7.38,7.38,0,0,1-1.77-5,13.07,13.07,0,0,1,1.27-5.32h-.87a8.28,8.28,0,0,0-1.43.12,2.94,2.94,0,0,0-1.3.62,18.34,18.34,0,0,0-4.71,5.07,27,27,0,0,0-2.91,6.37,35.78,35.78,0,0,0-1.43,7,66.56,66.56,0,0,0-.37,6.92,3.51,3.51,0,0,0,.06.68,4.14,4.14,0,0,0,.19.68,14.33,14.33,0,0,0,5.59-1.48,44.28,44.28,0,0,0,4.84-3,8,8,0,0,1,1.74-.87l2.23,1.74ZM127.19,410a5.93,5.93,0,0,0,1.73-1.61c.66-.82,1.15-1.48,1.48-2a1.2,1.2,0,0,0-.8.44,13.17,13.17,0,0,0-.93,1.05c-.33.41-.64.82-.93,1.24A7.77,7.77,0,0,0,127.19,410Zm7.91-1.48-1.11.37a5.49,5.49,0,0,0-1.61,1.42,17.31,17.31,0,0,0-1.61,2.35c-.49.87-1,1.73-1.36,2.6a19.31,19.31,0,0,0-.86,2h.12a3.56,3.56,0,0,1,.5-.93,7.5,7.5,0,0,0,.61-.93l2.54-3.64a20.22,20.22,0,0,1,2.91-3.28ZM130,410.32q.61-.61,1.11-1.05a8.43,8.43,0,0,0,1-1,2.07,2.07,0,0,0-1.36.74A2,2,0,0,0,130,410.32Zm12.81-.12a.35.35,0,0,0-.12.25h.12Zm.62,22.27q0,.12-.06.12s-.06.05-.06.13h.12Z"/><path class="cls-1" d="M187.56,405a28.28,28.28,0,0,1-.8,6.56c-.54,2.23-1,4.41-1.43,6.56q-1.37,7.67-3,15.4a76.24,76.24,0,0,0-1.6,15.53,23.71,23.71,0,0,0,.12,2.41,13.57,13.57,0,0,0,.49,2.41.24.24,0,0,0,.07.19.24.24,0,0,1,.06.18.86.86,0,0,1-.06.37.78.78,0,0,0-.07.38,6.74,6.74,0,0,1-1.48.12,7.41,7.41,0,0,1-4.83-1.86,6.44,6.44,0,0,1-2.47-4.45,21.39,21.39,0,0,1-.12-2.29v-2.29c0-1.4,0-2.82.06-4.27s.14-2.86.31-4.26q1-8.42,2.16-16.09a115.24,115.24,0,0,1,3.65-15.83l-.24-.25-3.84,3.21a21.61,21.61,0,0,0-3.46,3.9,48.14,48.14,0,0,0-2.85,4.39,86.69,86.69,0,0,0-5.88,12.13A78.27,78.27,0,0,0,158.61,440c-.17.82-.33,1.52-.5,2.1a12.7,12.7,0,0,1-5.07-1.49,7.13,7.13,0,0,1-2.78-3,12.28,12.28,0,0,1-1.18-4.21,50,50,0,0,1-.25-5.07A101.55,101.55,0,0,1,150.69,409q1.86-9.58,4-19.11c.58-2.56,1.15-5.11,1.73-7.67a77.35,77.35,0,0,1,2.11-7.55q1.11-3.58,2.53-7.05t2.79-6.93l.74-1.79a6,6,0,0,1,1-1.67c.41.24.74.43,1,.55a2.13,2.13,0,0,0,1,.19,3.61,3.61,0,0,1,2,.8,14.11,14.11,0,0,1,1.73,1.43,4.42,4.42,0,0,1,.8,1,4.21,4.21,0,0,1,.31,1.24v1a22,22,0,0,1-.49,4.21q-.49,2.48-1.24,5.13t-1.55,5.2c-.53,1.69-1,3.15-1.3,4.39q-1.35,5.07-2.59,10t-2.48,10c-.16.66-.39,1.55-.68,2.66s-.6,2.27-.93,3.46-.6,2.34-.8,3.41a13.82,13.82,0,0,0-.31,2.47.57.57,0,0,0,.06.25.57.57,0,0,1,.06.25q1.86-2.73,3.47-4.95a37.86,37.86,0,0,1,3.46-4.15,49.19,49.19,0,0,1,4-3.65,56.34,56.34,0,0,1,5-3.59,9,9,0,0,1,1.36-.74,4.12,4.12,0,0,1,1.49-.24,7,7,0,0,1,3.4.92,30.45,30.45,0,0,1,3,1.92,5.83,5.83,0,0,1,1.86,2A6.33,6.33,0,0,1,187.56,405Zm-32.91-3.59h-.12v.25h.12Zm.25-1a.94.94,0,0,1,.06-.38.86.86,0,0,0,.06-.37l-.37.62Zm.12-.87a1.42,1.42,0,0,0,.13-.62H155Zm.37-2.35a1.4,1.4,0,0,0-.12.62h.25C155.43,397.75,155.39,397.54,155.39,397.21Zm.13,27.59c0-.17,0-.27-.07-.31a.49.49,0,0,1-.06-.31,1.43,1.43,0,0,0-.12.62Zm.24-3.34a6.93,6.93,0,0,0-.24,1.48h.24ZM158.49,405c-.58,2.72-1.12,5.45-1.61,8.17s-.87,5.44-1.12,8.16a29.63,29.63,0,0,0,.87-3.27c.25-1.2.47-2.46.68-3.78s.41-2.6.62-3.83.43-2.39.68-3.47q2.1-9.64,4.7-19.17t5.07-19.18l-.24.12q-1.37,4.22-2.66,8.29c-.87,2.72-1.67,5.49-2.42,8.29q-1.35,4.95-2.47,9.84C159.85,398.43,159.14,401.7,158.49,405Zm-2.23-11.26a.75.75,0,0,0-.13.5h.13Zm0-.12a.73.73,0,0,0,.25-.49l-.25-.13Zm.37-1.73.25.12a8.22,8.22,0,0,1,.06-1,8.22,8.22,0,0,0,.06-1l.25-.12c.25-.91.47-1.75.68-2.54s.39-1.63.56-2.53a11,11,0,0,0-.93,2.53c-.21.87-.39,1.76-.56,2.66Zm.49,8.41v.5h.13v-.5Zm.87-3.46a.89.89,0,0,1-.06.37.86.86,0,0,0-.06.37l-.25.86h.25l.37-1.48Zm8,17.81a14.79,14.79,0,0,0-2.35,3.47c-.82,1.56-1.63,3.23-2.41,5a54.64,54.64,0,0,0-2,5.26c-.58,1.73-1,3.09-1.24,4.08a1,1,0,0,0-.06.62,1,1,0,0,1-.06.62,3,3,0,0,0,.62-1.12c.65-2,1.34-4,2-5.94a58.75,58.75,0,0,1,2.41-5.81L166,414.9Zm-7.79-18.8a.35.35,0,0,0,.12.24v-.24Zm0,31.17h.12v-.12Zm.37-32.78a1.4,1.4,0,0,0-.12.62l.24.12A1.74,1.74,0,0,1,158.61,394.24Zm.25,26.6h.24l1.12-2.35Zm3.59-41.32q-.87,2.84-1.61,5.75T159.48,391a6,6,0,0,0,.68-1.85c.28-1.07.59-2.27.92-3.59s.62-2.56.87-3.71.41-1.94.5-2.35l.24-.75.13-.49a.67.67,0,0,0-.13.49A1.94,1.94,0,0,0,162.45,379.52Zm-1.37,48.25-.12-.13v.13Zm0-53.08a.35.35,0,0,0,.25-.12v-.13Zm.62-1.86h.13v-.12Zm.37,52H162l.12.12Zm.87-7.8a.35.35,0,0,1,.12-.24h-.12Zm.12-39.46.13-.38h-.13Zm.13,15.83-.13.13h.13Zm.12-16.95h.12v-.24h-.12Zm.25-1.11h.12v-.13Zm.86,13.24a.34.34,0,0,1,.13-.25h-.13Zm1.49-5.07h-.12v.12Zm.49-2h-.12v.12Zm-.12,32.91a1.31,1.31,0,0,1,.25-.38.5.5,0,0,0,.12-.37,1.13,1.13,0,0,1-.25.37A.54.54,0,0,0,166.28,414.41Zm.37-33.78a.11.11,0,0,0-.12.12h.12Zm2.23-14.6c-.17.66-.33,1.49-.5,2.47.17-.41.33-.8.5-1.17a2.94,2.94,0,0,0,.25-1.18Zm.37-.87h.12a.73.73,0,0,0-.12-.49l.37-.5-.12-.12a2.44,2.44,0,0,1-.25.62ZM179.52,434h-.13v.5l.13-.13Zm.49-3.71h-.12c0,.08,0,.13.06.13s.06,0,.06.12Zm.62-4-.25.87h.25Zm1.86-8.29q.62-2.6,1.11-5.13t.87-5.14c-.83,2.81-1.51,5.59-2,8.36s-1.06,5.58-1.55,8.47a15.55,15.55,0,0,0,.93-3.28C182,420.08,182.24,419,182.49,418Zm2.22-11.26h-.24v.62Z"/><path class="cls-1" d="M215,411.19a11.38,11.38,0,0,1-1.79,6.18,17.6,17.6,0,0,1-4.54,4.89,23.64,23.64,0,0,1-6,3.22,18.66,18.66,0,0,1-6.33,1.17,4.79,4.79,0,0,0-.37,2.05v2c0,.33,0,.82.06,1.48a11.31,11.31,0,0,0,.31,2,6.3,6.3,0,0,0,.67,1.73,1.22,1.22,0,0,0,1,.75,5.23,5.23,0,0,0,3.35-1.12,6.23,6.23,0,0,0,2-2.84l.12-.13V433a2.38,2.38,0,0,1-.56,1.55,4.4,4.4,0,0,0-.8,1.42,2.78,2.78,0,0,0,1.36-1.3,11.2,11.2,0,0,1,1-1.67,2.44,2.44,0,0,1,.25.62,1.56,1.56,0,0,1-.37,1.05,2.23,2.23,0,0,0-.5,1.06l.87.12-.13.37.25.12v-.12h.37l-.12-.25h.12l.13-.49h.12l.25-.5v.5a1.67,1.67,0,0,0,.49-1.24l.5-.62a5.89,5.89,0,0,1-2.35,4.33,7.52,7.52,0,0,1-4.7,1.61q-5.7,0-8.85-3.46a12.92,12.92,0,0,1-3.16-9,24.33,24.33,0,0,1,1.67-8.78,35.21,35.21,0,0,1,4.27-7.92,13.14,13.14,0,0,1,11.26-5.94,11.3,11.3,0,0,1,1.67.13,12.32,12.32,0,0,1,1.67.37l-2.47-4.58,1-.25a12.52,12.52,0,0,1,6,4.15A11,11,0,0,1,215,411.19ZM192.26,417c-.08,0-.12.05-.12.13h.12Zm.62-1.85-.37.62.25.12Zm.12-.25-.12.12H193Zm2-2.72a.49.49,0,0,1,.06-.31.47.47,0,0,0,.07-.31l.37-.12a.5.5,0,0,0-.37.12l-.62,1-.25.37V413a2.88,2.88,0,0,0-.43.56c-.13.21-.27.43-.44.68a1.61,1.61,0,0,0,.87-1.24l.25-.49Zm-.24,8.66c-.09.08-.13.29-.13.62h.13Zm.37-5.45v0Zm.12,4.71a12.86,12.86,0,0,1,1.86-3.9,19,19,0,0,0,2.1-3.9,19.55,19.55,0,0,0-2.64,3.59A8.3,8.3,0,0,0,195.23,420.1Zm.5-6.19a1,1,0,0,0-.13.5A.75.75,0,0,0,195.73,413.91Zm.74-.74a.74.74,0,0,0-.19.31q-.06.18-.18.18h.12A.69.69,0,0,0,196.47,413.17Zm12-4.21a11.41,11.41,0,0,0-4,1.8,16,16,0,0,0-3.28,3,18.1,18.1,0,0,0-2.41,3.83,17.29,17.29,0,0,0-1.36,4.08,7.52,7.52,0,0,0,3.59-1.48,20.55,20.55,0,0,0,6.31-7,8,8,0,0,0,1.11-3.77Zm-8.78,3c-.09,0-.21.08-.38.25l.5-.25v-.12Zm8,3.84a.65.65,0,0,0-.13.49l-.37.25.37-.12v-.13Zm.62-.75a2.12,2.12,0,0,0,.24-.61l-.24.49Zm.61-1.36c.17,0,.25-.08.25-.24H209Zm.75,4.7-.25.25Zm0-2.59h.12l.12-.38Zm.12,2.59a.5.5,0,0,0,.37-.12A.51.51,0,0,0,209.83,418.36Zm2.85-4.7c-.17.25-.38.58-.62,1s-.52.85-.81,1.3-.53.89-.74,1.3a2.31,2.31,0,0,0-.31.87,8,8,0,0,0,1.55-2.11A14.74,14.74,0,0,0,212.68,413.66Z"/><path class="cls-1" d="M237.67,353.16c.16-.49.45-.74.86-.74a4.77,4.77,0,0,1,2.72.93,10,10,0,0,1,2.42,2.35,14.72,14.72,0,0,1,1.73,3,7.51,7.51,0,0,1,.68,2.85,27,27,0,0,1-.93,5.69c-.62,2.55-1.34,5.26-2.16,8.1s-1.65,5.57-2.48,8.17-1.44,4.64-1.85,6.12q-.75,2.47-1.61,5t-1.61,5l-6.68,23.88a118.23,118.23,0,0,0-2.85,12.13,69.81,69.81,0,0,0-1.11,12.37,19.27,19.27,0,0,0,.31,3.46,33.39,33.39,0,0,0,.8,3.47c.17.74.37,1.5.62,2.28a12.59,12.59,0,0,1,.5,2.29,2.32,2.32,0,0,0-.56.07,3,3,0,0,1-.56.06,7.49,7.49,0,0,1-4.51-1.49,14.12,14.12,0,0,1-3.4-3.46,11,11,0,0,1-2.11-5.2,43.49,43.49,0,0,1-.37-5.69,81.87,81.87,0,0,1,1.36-13.61q1.37-7.92,3.34-16.27t4.21-16.2q2.22-7.86,4.08-13.55.5-1.74,2.17-6.07t3.4-9q1.72-4.69,3.09-8.6a21.63,21.63,0,0,0,1.36-4.88A4.77,4.77,0,0,0,237.67,353.16Zm-15.34,87.23a7.79,7.79,0,0,0,.37-1.3c.08-.45.16-.89.24-1.3l1-5.69c.33-1.9.75-3.79,1.24-5.69q1.11-4.46,2.17-8.91t2.28-8.91q1.74-6.31,3.78-12.43t3.52-12.44a20.13,20.13,0,0,0-1.11,2.79q-.74,2.16-1.67,5.13c-.62,2-1.26,4.13-1.92,6.43s-1.3,4.52-1.91,6.62-1.16,4-1.61,5.76-.81,3-1,3.71q-1.86,6.43-3.28,13A109.38,109.38,0,0,0,222.33,440.39ZM237.91,381a1.66,1.66,0,0,0-.61,1.36Zm.38-1.11-.25-.13a4.4,4.4,0,0,0-.13,1.24Zm.61-2.11-.12-.12v.12Z"/><path class="cls-1" d="M255.85,353.16c.17-.49.45-.74.87-.74a4.82,4.82,0,0,1,2.72.93,9.93,9.93,0,0,1,2.41,2.35,14.72,14.72,0,0,1,1.73,3,7.36,7.36,0,0,1,.69,2.85,27,27,0,0,1-.93,5.69c-.62,2.55-1.34,5.26-2.17,8.1s-1.65,5.57-2.47,8.17-1.45,4.64-1.86,6.12q-.73,2.47-1.61,5t-1.61,5l-6.68,23.88a118.21,118.21,0,0,0-2.84,12.13A69.81,69.81,0,0,0,243,448.06a20.22,20.22,0,0,0,.3,3.46c.21,1.16.48,2.31.81,3.47.16.74.37,1.5.62,2.28a12.54,12.54,0,0,1,.49,2.29,2.3,2.3,0,0,0-.55.07,3.06,3.06,0,0,1-.56.06,7.52,7.52,0,0,1-4.52-1.49,14.3,14.3,0,0,1-3.4-3.46,10.92,10.92,0,0,1-2.1-5.2,43.49,43.49,0,0,1-.37-5.69,81.87,81.87,0,0,1,1.36-13.61q1.35-7.92,3.34-16.27t4.2-16.2q2.23-7.86,4.09-13.55.5-1.74,2.16-6.07t3.4-9q1.74-4.69,3.1-8.6a22.23,22.23,0,0,0,1.36-4.88A4.71,4.71,0,0,0,255.85,353.16Zm-15.34,87.23a6.94,6.94,0,0,0,.37-1.3c.08-.45.17-.89.25-1.3l1-5.69c.33-1.9.74-3.79,1.24-5.69q1.11-4.46,2.16-8.91c.7-3,1.47-5.94,2.29-8.91q1.73-6.31,3.77-12.43t3.53-12.44a17.78,17.78,0,0,0-1.11,2.79c-.5,1.44-1.05,3.15-1.67,5.13s-1.26,4.13-1.92,6.43-1.3,4.52-1.92,6.62-1.16,4-1.61,5.76-.8,3-1,3.71q-1.86,6.43-3.28,13A109.38,109.38,0,0,0,240.51,440.39ZM256.1,381a1.66,1.66,0,0,0-.62,1.36Zm.37-1.11-.25-.13a4.49,4.49,0,0,0-.12,1.24Zm.62-2.11-.12-.12v.12Z"/><path class="cls-1" d="M279,411.19a11.38,11.38,0,0,1-1.79,6.18,17.6,17.6,0,0,1-4.54,4.89,23.64,23.64,0,0,1-6,3.22,18.66,18.66,0,0,1-6.33,1.17,4.79,4.79,0,0,0-.37,2.05v2c0,.33,0,.82.06,1.48a11.31,11.31,0,0,0,.31,2,6.3,6.3,0,0,0,.67,1.73,1.22,1.22,0,0,0,1,.75,5.23,5.23,0,0,0,3.35-1.12,6.23,6.23,0,0,0,2-2.84l.12-.13V433a2.38,2.38,0,0,1-.56,1.55,4.4,4.4,0,0,0-.8,1.42,2.78,2.78,0,0,0,1.36-1.3,11.2,11.2,0,0,1,1-1.67,2.44,2.44,0,0,1,.25.62,1.56,1.56,0,0,1-.37,1.05,2.23,2.23,0,0,0-.5,1.06l.87.12-.13.37.25.12v-.12h.37l-.12-.25h.12l.13-.49h.12l.25-.5v.5a1.67,1.67,0,0,0,.49-1.24l.5-.62a5.89,5.89,0,0,1-2.35,4.33,7.52,7.52,0,0,1-4.7,1.61q-5.7,0-8.85-3.46a12.92,12.92,0,0,1-3.16-9,24.33,24.33,0,0,1,1.67-8.78,35.21,35.21,0,0,1,4.27-7.92,13.14,13.14,0,0,1,11.26-5.94,11.3,11.3,0,0,1,1.67.13,12.32,12.32,0,0,1,1.67.37l-2.47-4.58,1-.25a12.52,12.52,0,0,1,6,4.15A11,11,0,0,1,279,411.19ZM256.22,417c-.08,0-.12.05-.12.13h.12Zm.62-1.85-.37.62.25.12Zm.12-.25-.12.12H257Zm2-2.72a.49.49,0,0,1,.06-.31.47.47,0,0,0,.07-.31l.37-.12a.5.5,0,0,0-.37.12l-.62,1-.25.37V413a2.88,2.88,0,0,0-.43.56c-.13.21-.27.43-.44.68a1.61,1.61,0,0,0,.87-1.24l.25-.49Zm-.24,8.66c-.09.08-.13.29-.13.62h.13Zm.37-5.45v0Zm.12,4.71a12.86,12.86,0,0,1,1.86-3.9,19,19,0,0,0,2.1-3.9,19.55,19.55,0,0,0-2.64,3.59A8.3,8.3,0,0,0,259.19,420.1Zm.5-6.19a1,1,0,0,0-.13.5A.75.75,0,0,0,259.69,413.91Zm.74-.74a.74.74,0,0,0-.19.31q-.06.18-.18.18h.12A.69.69,0,0,0,260.43,413.17Zm12-4.21a11.41,11.41,0,0,0-4,1.8,16,16,0,0,0-3.28,3,18.1,18.1,0,0,0-2.41,3.83,17.29,17.29,0,0,0-1.36,4.08,7.52,7.52,0,0,0,3.59-1.48,20.55,20.55,0,0,0,6.31-7,8,8,0,0,0,1.11-3.77Zm-8.78,3c-.09,0-.21.08-.38.25l.5-.25v-.12Zm8,3.84a.65.65,0,0,0-.13.49l-.37.25.37-.12v-.13Zm.62-.75a2.12,2.12,0,0,0,.24-.61l-.24.49Zm.61-1.36c.17,0,.25-.08.25-.24h-.25Zm.75,4.7-.25.25Zm0-2.59h.12l.12-.38Zm.12,2.59a.5.5,0,0,0,.37-.12A.51.51,0,0,0,273.79,418.36Zm2.85-4.7c-.17.25-.38.58-.62,1s-.52.85-.81,1.3-.53.89-.74,1.3a2.31,2.31,0,0,0-.31.87,8,8,0,0,0,1.55-2.11A14.74,14.74,0,0,0,276.64,413.66Z"/><path class="cls-1" d="M493.51,438.53a9.87,9.87,0,0,1-2.59-3,18.74,18.74,0,0,1-1.8-4.21,31.11,31.11,0,0,1-1-4.57,30,30,0,0,1-.31-4,32.61,32.61,0,0,1,.56-5.87q.56-3,1.17-5.88c.5-2.14,1-4.29,1.43-6.43s1-4.29,1.54-6.44A125.09,125.09,0,0,1,497,384.22q2.65-6.81,4.89-13.86c-.42.25-1.2.68-2.35,1.3l-3.65,1.92c-1.28.66-2.48,1.23-3.59,1.73a7.7,7.7,0,0,1-2.17.74,2.9,2.9,0,0,1-2.16-1.24c-.7-.82-1.26-1.52-1.67-2.1l.24-.49-1.23-.87c.24-.25.47-.5.68-.74a2.41,2.41,0,0,1,.8-.62c.91-.5,1.84-.95,2.79-1.36a20.25,20.25,0,0,0,2.78-1.49,83.87,83.87,0,0,0,7.42-4.57q3.58-2.47,7.18-5.2c.33-.25.66-.47,1-.68a2,2,0,0,1,1.11-.31,20.71,20.71,0,0,1,3.4,3.46,7,7,0,0,1,1.67,4.46,5.05,5.05,0,0,1-.3,1.42q-.32.93-.75,2c-.29.7-.58,1.38-.86,2a10.17,10.17,0,0,0-.56,1.49l-3.83,10.88q-1.37,3.6-2.54,7.24T503,396.71a7.52,7.52,0,0,0,1.86.13h3.27c1.2,0,2.33,0,3.41-.07s1.85-.06,2.35-.06c1.65,0,3.25.05,4.82.13s3.18.24,4.83.49a7.65,7.65,0,0,0,.49-1.48q1-3.47,2.48-8.85t3.34-11q1.85-5.62,3.9-10.58a34.56,34.56,0,0,1,4-7.55,1.71,1.71,0,0,1,1.36-.86,1.46,1.46,0,0,1,.62.12l.74,1.36.62-.12a5.86,5.86,0,0,1,.86,1.36l-.25.12.87.5c.17.41.39.91.68,1.48a3.46,3.46,0,0,1,.43,1.49,12.08,12.08,0,0,1-.43,2.84c-.29,1.16-.64,2.33-1,3.53s-.85,2.37-1.3,3.53-.8,2.14-1.05,3q-1.74,5.19-3.28,10.51t-2.91,10.77Q531.13,407,529,416t-3.77,18.07q-1.62,9-2.54,18.18a188.79,188.79,0,0,0-.93,19.06c0,.49,0,1-.06,1.54a3.33,3.33,0,0,1-.43,1.43l-2.54-1.18a5.3,5.3,0,0,1-2-1.79,18.5,18.5,0,0,1-2.85-7,40.5,40.5,0,0,1-.74-7.49,109.41,109.41,0,0,1,.68-12.12q.68-6.06,1.8-12.07T518,420.72q1.37-5.94,2.6-11.88a22,22,0,0,1,.68-2.91c.29-.95.56-1.87.8-2.78-3.54.08-7.05.24-10.51.49s-7,.42-10.52.5q-.37,1.49-.87,3a20.33,20.33,0,0,0-.74,3q-1.36,6.69-2,12.62a122.73,122.73,0,0,0-.62,12.62c0,.75,0,1.55-.06,2.42a13.66,13.66,0,0,1-.31,2.41l-2.6-1.61v.12h-.37Zm10-71.88a17.65,17.65,0,0,0-2.73,1.24c-1.07.57-2.18,1.21-3.34,1.91s-2.29,1.41-3.4,2.11-2,1.26-2.78,1.67a17,17,0,0,0,2.41-1.12q1.92-1,4.08-2.16c1.44-.78,2.74-1.55,3.9-2.29A9.57,9.57,0,0,0,503.54,366.65Zm-8.91,1.24-.5.24a.42.42,0,0,0-.25.37v.13Zm2.47-1.24.74-.62a9.9,9.9,0,0,0-1.73,1l.5-.25A1.07,1.07,0,0,1,497.1,366.65Zm9.16-6.06-.13-.13-1.42,1c-.7.5-1.42,1-2.17,1.49s-1.44,1-2.1,1.42a7,7,0,0,1-1.36.8l-.49.5c1.31-.82,2.63-1.63,4-2.41A27.31,27.31,0,0,0,506.26,360.59Zm-4.83,5.07-.74.62h.25a.44.44,0,0,0,.49-.5Zm3.22-1.61-.13-.25-.24.37Z"/><path class="cls-1" d="M545.48,407.35l2.22,1,2.54-3.34a44.83,44.83,0,0,1,3.09-3.59,19.27,19.27,0,0,1,3.53-2.9,7.21,7.21,0,0,1,4-1.18,8.71,8.71,0,0,1,4.08,1.11,15.16,15.16,0,0,1,3.77,2.85,15.72,15.72,0,0,1,2.73,3.84,9.1,9.1,0,0,1,1.05,4.08,23.75,23.75,0,0,1-1.36,7.67,47.93,47.93,0,0,1-3.47,7.73,45.94,45.94,0,0,1-4.82,7.05,68.18,68.18,0,0,1-5.32,5.76,31.65,31.65,0,0,1-3.22,2.6,9.38,9.38,0,0,1-3.84,1.48c-.41.08-.84.14-1.29.19s-.89.06-1.3.06a13,13,0,0,1-5.45-1.12,13.17,13.17,0,0,1-4.27-3,13.64,13.64,0,0,1-2.78-4.51,15.21,15.21,0,0,1-1-5.45v-1.48a19.46,19.46,0,0,1,.93-5.07,38.23,38.23,0,0,1,2.41-6.25,22.09,22.09,0,0,1,3.53-5.26A5.85,5.85,0,0,1,545.48,407.35Zm-4.21,5.08,2-2.23a3.12,3.12,0,0,0-1.18,1C541.78,411.6,541.52,412,541.27,412.43Zm1.11,6.92h-.24v.25Zm.87,16.58a21,21,0,0,0,7.92-4.14,36.26,36.26,0,0,0,6.55-7,46,46,0,0,0,4.83-8.48,38.42,38.42,0,0,0,2.72-8.6c.08-.41.17-.82.25-1.23a6.51,6.51,0,0,0,.12-1.24,3.53,3.53,0,0,0-.37-1.61,6.52,6.52,0,0,0-3.65,1.67,28.93,28.93,0,0,0-4.14,4,32.49,32.49,0,0,0-3.41,4.7,8.35,8.35,0,0,0-1.42,3.9,3.59,3.59,0,0,0,1.73,3,1.46,1.46,0,0,1-1.23.74,5.2,5.2,0,0,1-4.09-1.67c-1-1.11-1.94-2.25-2.84-3.4-.91,2.31-1.73,4.64-2.48,7a24,24,0,0,0-1.11,7.24c0,.9,0,1.77.12,2.6A15.3,15.3,0,0,0,543.25,435.93Zm2.84-23.87.13-.25a10.13,10.13,0,0,0-2,2.72,33.17,33.17,0,0,0-1.36,3.09c.16-.25.41-.62.74-1.11s.68-1.05,1-1.67l1-1.67A2.58,2.58,0,0,0,546.09,412.06Zm-2.72.86a2.8,2.8,0,0,0,1.12-1.73Zm7.55-5.44a4.67,4.67,0,0,1,.87-1.24c.49-.58,1.05-1.18,1.67-1.79l1.79-1.8c.58-.57,1-1,1.24-1.24h-.25a32.1,32.1,0,0,0-5.69,6.31Zm.87,5.81q1.85-2.48,3.65-4.82a44.37,44.37,0,0,1,3.89-4.46v-.12h-.12c-.08,0-.13,0-.13.06s0,.06-.12.06q-1,.75-2.16,1.8a16.21,16.21,0,0,0-2.17,2.35,29.47,29.47,0,0,0-1.79,2.6A7.5,7.5,0,0,0,551.79,413.29Zm.74-4.82a11.37,11.37,0,0,1,1.05-1.36c.37-.42.72-.83,1-1.24-.25.25-.66.68-1.24,1.3S552.53,408.22,552.53,408.47Zm14.23,11.87a53.56,53.56,0,0,1-3.9,6.38q-2.16,3-4.52,6a2.9,2.9,0,0,0-.43.55,3.82,3.82,0,0,0-.31.68,36,36,0,0,1,2.48-2.78,38.77,38.77,0,0,0,3.09-3.65,35.56,35.56,0,0,0,2.53-3.84A6.94,6.94,0,0,0,566.76,420.34Zm-8.91,7.43a7.7,7.7,0,0,0,1.48-1.73c.41-.66.83-1.37,1.24-2.11L559,426A5.05,5.05,0,0,0,557.85,427.77Zm.62,2.22-.13-.12C558.34,430,558.38,430,558.47,430Zm1.36-1.48c.41-.66.86-1.32,1.36-2s.95-1.32,1.36-2l-2.85,3.84v.12Zm2.84-4.33a.51.51,0,0,0-.12.37Zm1.86,3.09h.12v-.12Z"/><path class="cls-1" d="M595.83,353.16a.9.9,0,0,1,.87-.74,4.82,4.82,0,0,1,2.72.93,10.11,10.11,0,0,1,2.41,2.35,14.72,14.72,0,0,1,1.73,3,7.51,7.51,0,0,1,.68,2.85,27.52,27.52,0,0,1-.92,5.69c-.62,2.55-1.35,5.26-2.17,8.1s-1.65,5.57-2.47,8.17-1.45,4.64-1.86,6.12q-.74,2.47-1.61,5c-.58,1.69-1.11,3.36-1.61,5l-6.68,23.88a118.21,118.21,0,0,0-2.84,12.13A68.9,68.9,0,0,0,583,448.06a20.23,20.23,0,0,0,.31,3.46c.21,1.16.48,2.31.81,3.47.16.74.37,1.5.62,2.28a12.54,12.54,0,0,1,.49,2.29,2.38,2.38,0,0,0-.56.07,2.88,2.88,0,0,1-.55.06,7.52,7.52,0,0,1-4.52-1.49,14.12,14.12,0,0,1-3.4-3.46,11,11,0,0,1-2.11-5.2,45.3,45.3,0,0,1-.37-5.69A83,83,0,0,1,575,430.24q1.37-7.92,3.34-16.27t4.21-16.2q2.24-7.86,4.08-13.55c.33-1.16,1.06-3.18,2.17-6.07s2.25-5.89,3.4-9,2.19-6,3.09-8.6a21.9,21.9,0,0,0,1.37-4.88A4.71,4.71,0,0,0,595.83,353.16Zm-15.34,87.23a6.94,6.94,0,0,0,.37-1.3c.08-.45.16-.89.25-1.3l1-5.69c.33-1.9.74-3.79,1.23-5.69q1.13-4.46,2.17-8.91t2.29-8.91q1.73-6.31,3.77-12.43t3.53-12.44a18.53,18.53,0,0,0-1.12,2.79q-.74,2.16-1.67,5.13c-.61,2-1.26,4.13-1.91,6.43s-1.3,4.52-1.92,6.62-1.16,4-1.61,5.76-.8,3-1.05,3.71q-1.86,6.43-3.28,13A109.38,109.38,0,0,0,580.49,440.39ZM596.08,381a1.64,1.64,0,0,0-.62,1.36Zm.37-1.11-.25-.13a4.49,4.49,0,0,0-.12,1.24Zm.62-2.11-.13-.12v.12Z"/><path class="cls-1" d="M621.69,414.65l1-1-.13.75.37-.75h-.24l.24-.37v.37l.25-.49h.13l.49-.87.25.13a50,50,0,0,1-4.27,8.29q-2.53,4-5,7.91c-.91,1.49-1.82,3-2.72,4.52s-1.86,3-2.85,4.39q-1.86,2.73-4.51,6.25t-4.77,5.88a2.5,2.5,0,0,1-1.17.74,6.26,6.26,0,0,1-1.3.12,6.79,6.79,0,0,1-4.46-1.42,5.22,5.22,0,0,1-1.73-4.27,53.91,53.91,0,0,1,1-10.21q1-5.13,2.35-9.83c.66-2.48,1.28-4.95,1.86-7.43a46.32,46.32,0,0,0,1.11-7.54v-.5a2.41,2.41,0,0,0-.18-.93,2.17,2.17,0,0,1-.19-.92.59.59,0,0,1,.43-.56c.29-.12.52-.23.68-.31a14.82,14.82,0,0,1,7,2.85q2.91,2.22,2.91,6.68a23,23,0,0,1-1,6.8c-.66,2.15-1.32,4.33-2,6.56l-2.72,9.15c0,.09,0,.13-.06.13s-.06,0-.06.12V439l.12.24a81.09,81.09,0,0,0,4.89-6.74q2.28-3.52,4.64-7a34.08,34.08,0,0,1,3-4c1.07-1.24,2.1-2.51,3.09-3.83a13,13,0,0,0,1.55-2.23,9.85,9.85,0,0,1,1.67-2.23l-.62,1.12.86-1c-1,1.65-2,3.27-3.15,4.88a32,32,0,0,0-2.91,5.14l1.24-1.49a10.92,10.92,0,0,0,1.11-1.61,32.38,32.38,0,0,0,1.8-3.34,10.64,10.64,0,0,1,2.16-3.09Zm-24.5,30.69h.25q1.35-5.44,2.9-10.77t3-10.76a15.2,15.2,0,0,0-1.61,4.14c-.33,1.45-.7,2.87-1.12,4.27-.66,2.15-1.32,4.31-2,6.5A46.13,46.13,0,0,0,597.19,445.34Zm8.66-57.16.62.12v.87a2.51,2.51,0,0,0,.86-.62l1.24.62-.24.86,1.48.25v1.24l.62-.13a2.54,2.54,0,0,1,1.24,2.11,13.58,13.58,0,0,1-.68,4.27,13.21,13.21,0,0,0-.69,4.26,13,13,0,0,0,.25,2.48,12.18,12.18,0,0,1,.25,2.47,2.2,2.2,0,0,1-1.11.37,2.06,2.06,0,0,1-1.18-.37,1.52,1.52,0,0,0-1.18-.25,7,7,0,0,1-2.1-1.91,19.38,19.38,0,0,1-1.79-2.85,16,16,0,0,1-1.24-3.09,10.74,10.74,0,0,1-.43-2.91,12.23,12.23,0,0,1,.25-2.1,15.92,15.92,0,0,1,.74-2.72,12.1,12.1,0,0,1,1.17-2.42,1.91,1.91,0,0,1,1.55-1.05Zm-4,53.44c.17-.16.37-.35.62-.55s.45-.39.62-.56q3.71-5.56,7.42-10.95l7.55-10.95-3,3.22a18,18,0,0,0-2.47,3.34q-1.62,2.59-3.28,5.13t-3.28,5.14a26.4,26.4,0,0,1-2.17,3A17,17,0,0,0,601.89,441.62Zm1.86-19.17h-.25v.74a.43.43,0,0,0,.12-.31A.91.91,0,0,1,603.75,422.45Zm4,14a1,1,0,0,0-.68.49,7.31,7.31,0,0,1-.44.75Zm1.61-2.11c-.83.17-1.24.54-1.24,1.12v.25Zm3.46-4.82.49-.37c.17-.33.33-.64.5-.93a8.78,8.78,0,0,0,.49-1.05,4.63,4.63,0,0,1-.68,1.17A13.57,13.57,0,0,0,612.78,429.5Zm3.22-4,.37-.37a.5.5,0,0,1-.37-.12c.16-.33.31-.64.43-.93s.27-.6.43-.93l-1.48,2.1.62-.24Zm2.59-4.33h-.24l.37-.62v-.49A9.3,9.3,0,0,0,617.6,422l.5-.25.25-.49a.73.73,0,0,1,.12.49A.71.71,0,0,0,618.59,421.21Zm-.49.87.37-.38h-.25A.54.54,0,0,0,618.1,422.08Zm.74-1.36h-.12V421A.35.35,0,0,0,618.84,420.72Zm.87-1.61a1.83,1.83,0,0,1,.12-.68,1.91,1.91,0,0,0,.13-.68l-1.12,2.1.5-.25V420l.24-.37h-.24Zm0,0v.37l.25-.37a.74.74,0,0,1,.12-.5H620v.5Zm2-4.46a1.43,1.43,0,0,1-.5,1l.5-.12.12-.5Zm.37.74-.25.13-.12.37Zm-.25-1.48a5.75,5.75,0,0,0,.37-.87c.08-.24.17-.53.25-.86l.25.12A4.45,4.45,0,0,1,621.81,413.91Zm1.24-.74V413h-.13v.25Zm.12-.5V413h-.12Zm.13.37h-.13v.13Z"/><path class="cls-1" d="M621.19,438.65a7.63,7.63,0,0,1-4.64-1.6,5.12,5.12,0,0,1-2.16-4.33,20.87,20.87,0,0,1,.37-4c.24-1.28.49-2.58.74-3.9q1-5.32,2.23-10.7A48.49,48.49,0,0,0,619,403.27a10.9,10.9,0,0,0-.06-1.17,1.76,1.76,0,0,0-.56-1.06,3.37,3.37,0,0,1-.43-.55,1,1,0,0,0-.55-.44l.12-.37-1-.62a1,1,0,0,1-.62-.86c0-.5.39-.87,1.18-1.12a6.79,6.79,0,0,1,1.79-.37,8.8,8.8,0,0,1,2.29.37,7,7,0,0,1,2.16,1,10.72,10.72,0,0,1,5.7,10.52,25.47,25.47,0,0,1-.56,4.14q-.55,2.91-1.18,5.88t-1.73,7.55l.12.49q5.21-7.66,10.77-15.15a74.69,74.69,0,0,1,12.87-13.43,9.84,9.84,0,0,1,1.79-1.23,4.53,4.53,0,0,1,2.16-.5A8.21,8.21,0,0,1,656,397a5.25,5.25,0,0,1,2.35,1.55,3,3,0,0,1,.62,1.42,10.52,10.52,0,0,1,.12,1.55,10,10,0,0,1-.25,2.23c-.16.74-.33,1.44-.49,2.1q-.37,1.36-.81,3c-.29,1.11-.6,2.25-.92,3.4s-.64,2.29-.93,3.4a18.12,18.12,0,0,1-.93,2.79l.12.49a8.43,8.43,0,0,1,1-1.05c.33-.29.7-.64,1.12-1.05l8-8a83.3,83.3,0,0,1,8.6-7.49l7.29-5.44a3.33,3.33,0,0,1,2.23-.74,8.61,8.61,0,0,1,3.47,1.11,8.78,8.78,0,0,1,3,2.1,2.83,2.83,0,0,1,.61,1.86,22.48,22.48,0,0,1-1.36,5.14c-.91,2.68-1.94,5.58-3.09,8.72s-2.27,6.16-3.34,9.09-1.82,5.06-2.23,6.37c-.58,1.9-1.11,3.8-1.61,5.69s-1,3.8-1.6,5.7a2.47,2.47,0,0,0-.13.86c0,.66.21,1.05.62,1.18s.62.47.62,1.05a1.29,1.29,0,0,1-1.24,1.42,15.17,15.17,0,0,1-2.1.19,6.35,6.35,0,0,1-2.17-.44,11.51,11.51,0,0,1-2.22-1.11,6.83,6.83,0,0,1-1.8-1.67,4.26,4.26,0,0,1-.86-2.1,9.49,9.49,0,0,1-.13-1.86,38.62,38.62,0,0,1,.44-5.57c.28-2,.68-4,1.17-6.06s1-4.06,1.61-6,1.15-3.73,1.73-5.38c.66-1.9,1.38-3.71,2.17-5.45s1.58-3.5,2.41-5.31a37.25,37.25,0,0,0-6.87,5.56q-3.27,3.35-6.37,7.05t-6,7.49q-2.91,3.78-5.75,6.87a3.68,3.68,0,0,1-1.49,1.17,3.86,3.86,0,0,1-1.17.19,10.51,10.51,0,0,1-1.12-.06,3.73,3.73,0,0,0-1.42.18L643.21,431a2.44,2.44,0,0,1-1.05-1.42,8.15,8.15,0,0,1-.18-1.79,24.81,24.81,0,0,1,.37-4.09c.24-1.48.55-3,.93-4.51s.78-3,1.23-4.46.89-2.74,1.3-3.89q.38-1,.87-2a11.3,11.3,0,0,0,.74-2,1.38,1.38,0,0,0,.12-.61.81.81,0,0,1,.25-.62h-.12a13.87,13.87,0,0,1-2.23,2.41,16.61,16.61,0,0,0-2.23,2.29q-2.6,3.21-4.88,6.62c-1.53,2.27-3,4.53-4.52,6.8s-3,4.56-4.58,6.87a76.55,76.55,0,0,1-5,6.56A4,4,0,0,1,621.19,438.65Zm-1-6.43h.5q2.59-10.89,4.82-21.9l-.37-.12q-1.24,5.57-2.41,11T620.2,432.22Zm15.47-13.86.24-.49A.73.73,0,0,0,635.67,418.36Zm1.23-5.81a.73.73,0,0,0-.24.49Zm8.54,8.66-.25.49h.13l.24-.49Zm.37-1.36v-.12h-.12Zm.5-2.23c-.09,0-.13,0-.13.13s0,.12.13.12Zm.12-.74h.12l.13-.37Zm.49-1.42s0-.07.13-.07v-.12l-.25.25Q646.92,415.52,646.92,415.46Zm.13,9.21-.13.13h.13Zm.37-1.48h.12v-.62A1.43,1.43,0,0,0,647.42,423.19Zm.74-1.86-.25-.12-.37,1.11Zm0-1.23v.12l.13-.12Zm.62-9.28c.5-1.32,1.07-2.7,1.73-4.15a14.33,14.33,0,0,0,1.24-4.27q-1,2.12-1.86,4.27a39.84,39.84,0,0,0-1.48,4.52Zm-.25,8.29h-.12v.37h.12Zm.13-.87h.12v-.37A.51.51,0,0,0,648.66,418.24Zm.24,6.68.5.13a8.53,8.53,0,0,0,.87-1.74q1.35-4.69,2.78-9.21c1-3,1.87-6.09,2.78-9.22.17-.66.31-1.28.44-1.86s.26-1.15.43-1.73l-.37-.12Zm.25-8H649a.37.37,0,0,0,.12.25Zm.25-1h.25v-1.24Zm.87-2.1-.13-.13a3,3,0,0,1-.25.44,3.31,3.31,0,0,0-.24.43A4,4,0,0,0,650.27,413.79Zm.49-2.23a9.4,9.4,0,0,0,1.36-3.09,24.76,24.76,0,0,1,1-3.22,22.35,22.35,0,0,0-1.36,3.09C651.34,409.5,651,410.57,650.76,411.56Zm3.09-8.17h-.24l.12.38Zm.87,9.53.12-.12h-.12Zm16.33,18.68-.12-.12A.11.11,0,0,0,671.05,431.6Zm.25-1.85h-.13v.37h.13Zm.49-2.48-.37,1.61h.25a5.81,5.81,0,0,1,.06-.8A6,6,0,0,0,671.79,427.27Zm0,0a6.76,6.76,0,0,0,1-3.83Zm9.65-25.11-.24-.13c-1.74,3.47-3.34,7-4.83,10.46a71.47,71.47,0,0,0-3.59,10.82,9.6,9.6,0,0,0,1-2.1c.25-.74.5-1.48.74-2.23q1-2.48,1.86-5t2-5c.49-1.15,1-2.29,1.61-3.4A26.7,26.7,0,0,0,681.44,402.16Zm-8.53,31H673v-.12Zm.12-.37.37-.49h-.25Zm.37-1.36.13.12v-.37A.34.34,0,0,0,673.4,431.48Zm.5,8.41.24.13a31.13,31.13,0,0,0,1.18-4.27c.29-1.44.64-2.87,1-4.27.74-2.8,1.59-5.59,2.54-8.35s2-5.51,3-8.23l4.95-13a2.14,2.14,0,0,0,.24-.93,3.53,3.53,0,0,1,.13-.93H687q-2.47,5.94-4.89,11.7a120,120,0,0,0-4.26,11.93c-.83,2.65-1.63,5.32-2.42,8.05A43.41,43.41,0,0,0,673.9,439.89Zm10.88-39.34-.24-.12q-2.24,5.56-4.77,10.94a62.51,62.51,0,0,0-4,11.2c-.25.91-.47,1.9-.68,3a13,13,0,0,1-.93,3,7.55,7.55,0,0,0,.93-2.23,21.09,21.09,0,0,1,.68-2.22c.83-2.31,1.63-4.6,2.42-6.87s1.62-4.56,2.53-6.87q1-2.47,2.1-4.88A51,51,0,0,0,684.78,400.55Zm-6.92,30.68h-.13a.46.46,0,0,0,.13.37H678A.5.5,0,0,1,677.86,431.23Zm.12-11,.12.12v-.12Zm.25-.62.12.13v-.13Zm.12,10.15h-.12l.12.12Zm1-2.85q0,.12-.06.12s-.06.05-.06.13A.37.37,0,0,0,679.34,426.9Zm.25-.86-.13-.13a.5.5,0,0,1-.12.37Zm-.13-9.9v.12l.13-.12Zm.37-.62h-.12v.12A.11.11,0,0,0,679.83,415.52Zm.13,9.22s0-.07.12-.07v-.12l-.25.25C679.92,424.8,680,424.78,680,424.74Zm.37-10.46c-.08,0-.12,0-.12.13S680.33,414.36,680.33,414.28Zm0,9.53h-.12v.25h.12Zm.12-.5h.13v-.12C680.49,423.19,680.45,423.23,680.45,423.31Zm1.86-4.95-.25-.12v.37Zm.49-1.73a.53.53,0,0,0-.12.37h.12Zm.62-.74-.24-.25a.36.36,0,0,0-.13.25Zm1-3h-.12a.5.5,0,0,1-.12.37Zm.25-1.11-.12.12h.12Zm.12-.62.13.12v-.12Zm.38-.62-.13.12h.13Zm.12-.5h.12V410Zm.49-.86-.12.12h.12Zm.75-2.23c0,.08,0,.13.12.13V407Zm.86-1.85h-.12v.24A.35.35,0,0,1,687.38,405.13Z"/><path class="cls-1" d="M724.62,427.64a3.83,3.83,0,0,1,.62-1.05,7.11,7.11,0,0,0,.74-1,60.56,60.56,0,0,1-2.6,5.57q-1.61,3.09-3.52,6.12t-4,5.75a26.75,26.75,0,0,1-4.09,4.34,26.65,26.65,0,0,1-3.4-1.43c-.86-.45-1.3-1.54-1.3-3.28a53.19,53.19,0,0,1,.93-10q.93-4.87,1.92-9.83l-4.21,4.33c-.66.66-1.38,1.44-2.16,2.35s-1.61,1.77-2.48,2.6a15,15,0,0,1-2.78,2.1,6,6,0,0,1-3.09.87,7.33,7.33,0,0,1-2.48-.5,9.81,9.81,0,0,1-2.53-1.36,7.66,7.66,0,0,1-1.92-2,4.31,4.31,0,0,1-.75-2.47,19.53,19.53,0,0,1,1.3-6.37,43.43,43.43,0,0,1,3.34-7.18,54.68,54.68,0,0,1,4.46-6.56,24.68,24.68,0,0,1,4.64-4.64,25.48,25.48,0,0,1,4.08-2.41,10.64,10.64,0,0,1,4.58-1.05,8.39,8.39,0,0,1,4.27,1.11,20.59,20.59,0,0,1,3.65,2.72,1.44,1.44,0,0,1,.49,1,1.83,1.83,0,0,1-.25.75l-3.58-1a15.87,15.87,0,0,0-5.88,3.46,33.06,33.06,0,0,0-4.58,5.26,42,42,0,0,0-3.59,6.18q-1.54,3.29-2.9,6.25l.24.25,2-1.48,11.88-10.64a11.77,11.77,0,0,0,2.48-3.16,5.54,5.54,0,0,1,3-2.54l.13,1.24-.37.12c-.17.25-.23.4-.19.44s-.06.18-.31.43l.37-.12.13-.62.37-.25a.78.78,0,0,1,.74-.49,1,1,0,0,1,.62.37l-.12.86.49-.24v-.13l.62.25c-.5,1.57-1,3.09-1.55,4.58s-1.09,3-1.67,4.45l-.12.13c.08,0,.12-.05.12-.13.25-.25.37-.41.37-.49.66-1.4,1.26-2.79,1.8-4.15s1.13-2.7,1.79-4c.74.17,1.12.54,1.12,1.12a4.38,4.38,0,0,1-.19,1.23c-.12.42-.27.83-.43,1.24-.42,1.15-1,2.84-1.8,5.07s-1.57,4.56-2.35,7-1.46,4.75-2,6.93a21.2,21.2,0,0,0-.87,4.76,7.88,7.88,0,0,0,2.17-1.91,24.12,24.12,0,0,1,1.92-2.17h.24a38.55,38.55,0,0,1-2.66,3.34,13.59,13.59,0,0,0-2.28,3.59H713v.12c.08,0,.13,0,.13-.12a38.27,38.27,0,0,0,3.21-3.65q1.49-1.92,3-3.77a10.36,10.36,0,0,0,.74-1.12,5.92,5.92,0,0,1,.87-1.11l.62-.62a52.2,52.2,0,0,1-4.58,6.5,34.54,34.54,0,0,0-4.33,6.62l4-4.58-1.11,2.1.86-.62.13.5a2.69,2.69,0,0,1,.49-1,6.72,6.72,0,0,0,.62-1h.12v-.13l-.12.13h-.25a9.31,9.31,0,0,1,.5-1.24,3,3,0,0,1,.86-1v.5l.25-.5.37-.25.25-.49a3.7,3.7,0,0,1,.8-1.36,4,4,0,0,0,.81-1.36,7.11,7.11,0,0,1,.55-.93,7.16,7.16,0,0,0,.56-.93h-.12l.24-.5h-.12L723,430l.13.5a3.85,3.85,0,0,1,.31-.87,6.39,6.39,0,0,1,.43-.74h-.12l.37-.25a4.59,4.59,0,0,0,.49-1.11Zm-33-6.06a.27.27,0,0,1-.06.19.21.21,0,0,0-.07.18h.13Zm.37-1c.25-.25.37-.41.37-.49.82-1.41,1.61-2.81,2.35-4.21a40.71,40.71,0,0,1,2.48-4.08c.16-.25.45-.64.86-1.18a2.41,2.41,0,0,0,.62-1.3l-.25.5a15.85,15.85,0,0,0-1.61,2c-.66.95-1.29,2-1.91,3.09s-1.2,2.19-1.74,3.22-.92,1.84-1.17,2.41a.83.83,0,0,0-.25.62Zm1.61,2,.37-.87a.41.41,0,0,0-.25.38.69.69,0,0,1-.25.49Zm.24,5.82a.71.71,0,0,0-.12.49h.12Zm.5-1.12a78.39,78.39,0,0,1,4.14-9.28,48,48,0,0,1,5.63-8.41,10.28,10.28,0,0,0-2.66,2.6,44.05,44.05,0,0,0-2.72,4c-.86,1.44-1.63,2.87-2.29,4.27s-1.15,2.56-1.48,3.46a14.44,14.44,0,0,0-.62,2.11c-.17.74-.33,1.44-.5,2.1A2.65,2.65,0,0,0,694.31,427.27Zm4.08-13.61c-.82,1.16-1.57,2.27-2.22,3.34a28.64,28.64,0,0,0-1.86,3.59c.66-1.15,1.34-2.27,2-3.34s1.38-2.18,2-3.34ZM699,409l.37-.25h-.12Zm.87,2.85a.39.39,0,0,1-.25.12h.25Zm.49-.87a.11.11,0,0,0-.12.12h.12Zm12.25,22.15h.12v-.25h-.12Zm.5,11.63a.22.22,0,0,0-.25.25Zm0-14.11.12.25v-.37Zm.12,14a2.68,2.68,0,0,1,.56-.43.74.74,0,0,0,.31-.68Zm.62-16.7a1.29,1.29,0,0,0-.13.62h.13Zm0-.49.25-.5H714Zm1.11-3.1a16.71,16.71,0,0,0-.86,2.48,3,3,0,0,0,.61-1.24C714.8,425.13,714.89,424.72,715,424.3ZM714.11,444c.08,0,.12,0,.12-.07s0-.06.12-.06S714.27,444,714.11,444Zm.74-1a.92.92,0,0,1,.06-.37.86.86,0,0,0,.06-.37l-.74,1.12Zm1-31.3a3.66,3.66,0,0,0-1,1.86ZM715,442.86l.12-.12A.11.11,0,0,1,715,442.86Zm.25-19.55a.54.54,0,0,0-.13.37Zm.37,19.3c-.08,0-.12,0-.12.07s-.05.06-.13.06h.25Zm0-20.53a1,1,0,0,0-.12.61l.12-.24Zm.87,19.42h-.13l-.37.25h.12Zm1-28.83c-.42.17-.62.37-.62.62v.13a.35.35,0,0,0,.12.24Zm.12-.74a1.43,1.43,0,0,0-.12.62A1.4,1.4,0,0,0,717.57,411.93Zm1,26.35a.71.71,0,0,0,.12-.49A.73.73,0,0,0,718.56,438.28Z"/><path class="cls-1" d="M733.16,443.73a7.21,7.21,0,0,1-5-2.11,6.49,6.49,0,0,1-2.29-4.94,36,36,0,0,1,.69-6.25c.46-2.52,1-5.12,1.76-7.8s1.42-5.28,2.13-7.79,1.32-4.64,1.82-6.37c.5-1.57,1-3.24,1.45-5a20.51,20.51,0,0,0,.69-5.14,3.48,3.48,0,0,0-.13-.93c-.08-.28-.16-.59-.25-.92.17-.42.58-.62,1.23-.62a2.31,2.31,0,0,1,.85.31l.85.43a9.32,9.32,0,0,1,5,8.17,35,35,0,0,1-.8,6.68q-.81,4-1.92,8.1c-.74,2.76-1.55,5.47-2.41,8.1s-1.59,4.87-2.17,6.68l.25.13q5.19-7.17,10.27-14.29t10.89-13.8l4.45-5.19c1.49-1.74,3-3.42,4.58-5.08.49-.49,1-1,1.48-1.42a4,4,0,0,1,1.73-.93,9,9,0,0,1,2.05.62,11.9,11.9,0,0,1,2.28,1.3,9.16,9.16,0,0,1,1.86,1.73,3.17,3.17,0,0,1,.74,2,6.79,6.79,0,0,1-.31,1.74c-.2.74-.45,1.54-.74,2.41s-.58,1.69-.86,2.47-.52,1.39-.69,1.8q-1.23,3.21-3.33,9T765.2,429q-2,6.31-3.4,12.07a39.76,39.76,0,0,0-1.42,8.84,3.15,3.15,0,0,0,1.48,3,1.09,1.09,0,0,1-1.24,1.24,8.24,8.24,0,0,1-4.26-1,7,7,0,0,1-2.6-2.66,11,11,0,0,1-1.24-3.77,29.33,29.33,0,0,1-.31-4.33,34.88,34.88,0,0,1,.62-6.31q.61-3.35,1.55-6.75t2-6.74q1.11-3.35,2-6.18a49.36,49.36,0,0,1,2-5.45q1.11-2.6,2.1-5.32a1.56,1.56,0,0,1-.56.37,1.84,1.84,0,0,0-.55.37,76.44,76.44,0,0,0-7.55,9.1q-3.47,4.89-6.56,9.83l-2.53,4.15q-1.56,2.54-3.28,5.19c-1.16,1.78-2.29,3.43-3.41,4.95a22.45,22.45,0,0,1-2.9,3.4A3,3,0,0,1,733.16,443.73ZM737,438l.25-.5A.71.71,0,0,0,737,438Zm4.09-10.15a7.85,7.85,0,0,0-1.06,1.3c-.29.45-.55.89-.8,1.3a5.9,5.9,0,0,0,1-1.3A9.82,9.82,0,0,1,741.08,427.89Zm-1,5.82.49-.62a4.31,4.31,0,0,1,.25-.44c.08-.12.16-.26.25-.43a4.83,4.83,0,0,0-.56.68A2.92,2.92,0,0,0,740.09,433.71Zm.74-2.36-.12.13C740.79,431.48,740.83,431.44,740.83,431.35Zm1.36-4.94a2,2,0,0,1,.56-.87,4.26,4.26,0,0,0,.68-.74,14.61,14.61,0,0,0,1.3-1.8l1.17-1.91a92,92,0,0,1,9.28-11.76q5.07-5.44,9.78-11.38l.37-.49-.25-.25q-4.71,5.07-9.22,10.27a126.19,126.19,0,0,0-8.47,10.88q-1.49,2.11-3,4.21A27.07,27.07,0,0,0,741.7,427Zm-.25,3.46v-.12l-.12.12Zm.25.62A17.94,17.94,0,0,0,743.3,429c.33-.49.66-1,1-1.6A13.41,13.41,0,0,0,742.19,430.49Zm1.86-4.45h-.38a.71.71,0,0,1-.24.49h.62l.12-.37Zm1.85-1.37a12,12,0,0,1-.86,1.24,4.66,4.66,0,0,0-.75,1.36A9.75,9.75,0,0,0,745.9,424.67Zm-1.11.38-.25-.13v.37a.5.5,0,0,0,.12.37.65.65,0,0,0,.13-.49h.49A.71.71,0,0,0,744.79,425.05Zm-.25,3.09v.25l.12-.13Zm.74-4H745v.25a.51.51,0,0,0,.12.37v.25a.11.11,0,0,0,.12.12v-.74a.46.46,0,0,0,.37-.13h-.24C745.32,424.3,745.28,424.26,745.28,424.18Zm.62-.74-.25-.13v.37a.68.68,0,0,0,.13.5c0-.41.16-.62.49-.62A.5.5,0,0,0,745.9,423.44Zm.37-.87h-.12v.25a1.74,1.74,0,0,1,.12.74,1.72,1.72,0,0,0,.13-.74l.24-.13h-.24C746.31,422.69,746.27,422.65,746.27,422.57Zm.5,1.11.12-.49-.37.74Zm5.81-7.79.5-.74h.25l.61-.62a8.26,8.26,0,0,1,.75-1,12.16,12.16,0,0,1,.86-1.05,10.1,10.1,0,0,1,.62-1,11.82,11.82,0,0,1,1.18-1.49l1.29-1.42a4.71,4.71,0,0,1,.87-.81l-.25-.12v-.49c-.66.74-1.3,1.48-1.91,2.22a11.09,11.09,0,0,1-2.17,2,12.65,12.65,0,0,1,1.36-1.85c.74-.91,1.55-1.88,2.41-2.91s1.72-2,2.54-3,1.4-1.63,1.73-2a128.46,128.46,0,0,0-8.78,9.71q-4.08,5-7.8,10.45v.38l.13.49a23.74,23.74,0,0,1,1.61-2.29l1.73-2.16a9.12,9.12,0,0,1-.5,1.23l.87-.49h.25l.68-.93a5.14,5.14,0,0,0,.55-1.05l.37-.25a1.39,1.39,0,0,1,.5-.62Zm-3.83,4.7-1,1.49a2.77,2.77,0,0,1,.74-.5v-.12A1.24,1.24,0,0,0,748.75,420.59Zm0,.87-.13.12v.25A.52.52,0,0,0,748.75,421.46Zm9.77,20.41h.12v-.37h-.12Zm1-4.33-.87,3.09.38.13a9.84,9.84,0,0,0,.31-1.61C759.37,438.65,759.43,438.12,759.51,437.54Zm13.36-37.86-.37-.12q-2,4-3.83,8.72c-1.24,3.18-2.42,6.43-3.53,9.78s-2.15,6.68-3.09,10-1.8,6.41-2.54,9.21a3,3,0,0,0,.5-.74,79,79,0,0,0,2.72-8.53q1.11-4.33,2.6-8.54,1.73-5.07,3.77-9.9C770.46,406.36,771.72,403.07,772.87,399.68Zm-12.25,6.56a5,5,0,0,0,.62-.74,1.88,1.88,0,0,1,.75-.62,1.83,1.83,0,0,1,.61-.74,1,1,0,0,0,.38-.87l1.36-1.86-4.83,5.32a2.08,2.08,0,0,1,.5-.37A1.38,1.38,0,0,1,760.62,406.24Zm2,5.69.13-.12h-.13Zm.87-2.35q0,.12-.06.12s-.06.05-.06.13h.12ZM764,408l-.37.87.37.12Zm0,0,.38-.25c.57-1.23,1.17-2.47,1.79-3.71s1.26-2.47,1.92-3.71v-.62a31.43,31.43,0,0,0-2.17,4.09Q765,405.87,764,408Zm5.57-6.06a15.81,15.81,0,0,0-1,2,22.39,22.39,0,0,0-.8,2.1c.32-.66.66-1.34,1-2S769.29,402.57,769.53,401.91Zm.87-2-.13-.12v.49Z"/><path class="cls-1" d="M619.69,8.16a2.24,2.24,0,0,0-3.59.21c-14.78,22.66-32.66,40.15-56,50.47-21.64,9.56-42.18,21.79-62.66,33.28-1.13.57-2.7.26-4.55-.72a.94.94,0,0,1-.08-1.59c2.75-1.91,5.45-3.93,8.35-5.59,17.16-9.81,34.65-20.48,52.15-29.43,26.75-13.68,40.84-28.69,56.55-49,5.82-7.56,10.82-7.43,17.88-.92a56.65,56.65,0,0,1,18.15,32.56c6,32.55,4.61,64.81-6.89,95.38-7,18.61-19.06,35.51-30.14,52.32C601,197,591.51,208,581.82,218.5c-20.69,22.54-47.1,37.33-73.2,52.52S455.4,300.64,435,324c-4,4.61-7.78,9.47-11.86,14.5a.92.92,0,0,0-.19.78c2.49,11.9,5.64,24.32,7.57,36.92,3.58,23.5,5.78,42.11,8.91,65.68.25,1.86,1.68,11.28,2.64,15.75,1.11,5.15.34,5.07-7.16,5.73-10.61.95-13.71-1.13-14.53-10.29-2.3-25.8-3.43-51.76-6.94-77.4-3.12-22.79-4.82-33.55-10.91-56.71-3.48-13.27-9.66-30.06-18.57-44.6-1.32-2.15-4.6-6.74-4.73-8.9s.74-4.39,1.4-6.6a.93.93,0,0,1,1.42-.51c1.58,1.08,3.35,2.06,4.09,3.55,14.61,21.11,25.17,40.93,31.71,64.58.4.82.81,1.62,1.23,2.45a.94.94,0,0,0,1.55.18c30.9-36.81,70.24-62.63,110.08-87.69,26.27-16.54,49.25-36.8,67.29-61.75,21.55-29.81,38.55-61.74,40.41-99.62,1.1-22.26,1.69-43.58-12.79-64.67C624.09,13.21,622.29,11.24,619.69,8.16Z"/><path class="cls-1" d="M340.27,337a1.36,1.36,0,0,0-1.1-1.7c-14.29-2.27-27.65-4.56-41.06-6.42-22.4-3.12-45.17-4.44-67.16-9.31-19.15-4.23-37.65-11.78-56.07-18.84a215.26,215.26,0,0,1-67.2-41c-31.4-28.19-50.85-63-54.45-105.3C52.32,143.77,55,132,59.32,121.69c2.73-6.4,8.55-7.16,12.72-2,10.61,13.21,25,16.55,40.71,17.79,15.95,1.26,31.79,2.91,47.75,3.41,15,.48,23,0,34.49-.55,28.18-1.4,56.39-4.57,84.54.41h.1a1.36,1.36,0,0,1-.26,2.7c-8.77-.07-16.94-.13-25.11.12-26.57.8-53.11,2.29-79.68,2.83-18.78.37-35,0-53.81-.64-8.43-.29-20.48-1.24-27.79-3.18-8.42-2.25-13.74-5.47-19.07-12a33.57,33.57,0,0,0-5.07-5.2c-.56-.42-2.08-1.33-3.16-.38a11.74,11.74,0,0,0-3.38,6.87C59.93,145,59.65,158,63.58,171c9.53,31.58,24.64,59.82,50.63,80.75,35.35,28.48,74.84,48.67,120.1,56.51,34.1,5.9,68.1,12.39,102.2,18.31,5.4.88,5.57,1.36,7.78-4,.8-1.94,4.22-1.25,6.27-.82,2.21.47,4.14,1.36,4.46,2.92a14.55,14.55,0,0,1-.28,6.29c-3.34,15.17-7.34,30.19-10.58,45.38-4.72,22.1-8.83,44.32-13.61,66.4-.69,3.18-2.53,8.27-5.62,8.35a77.29,77.29,0,0,1-16.46-1.72c-2.28-.51-.79-4.32-.17-6.31,7.36-23.8,15.05-47.51,22.36-71.32C334,360.78,336.84,349.59,340.27,337Z"/><path class="cls-1" d="M427.06,113.92a2,2,0,0,1,.32,2.06c-.76,2.45-1.73,4.39-3.41,5.56-16.65,11.58-28.3,21.39-45.4,35.89a82.05,82.05,0,0,0-15.3,17.24c-2.42,3.68-3.49,3.89-4.41,3.14-1.21-1-3.81-3.65-3.76-5,.15-3.95,3.37-9.3,5.51-11.74a168.11,168.11,0,0,1,20.63-19.3c7.25-5.78,15.12-11,22.93-16.46,6.46-4.49,13.73-8,20.74-11.73a1.8,1.8,0,0,1,2.13.32Z"/><path class="cls-1" d="M326.72,151c8.58,3.25,16.16,8.19,25.46,13a.48.48,0,0,1-.09.89c-6.71,1.71-20.62-5.62-26.34-12.11C325,151.55,326.09,150.72,326.72,151Z"/></g></g></svg>