<svg xmlns="http://www.w3.org/2000/svg" viewBox="0 0 652.74 671.43"><defs><style>.cls-1{fill:#55c9ec;}</style></defs><g id="Layer_2" data-name="Layer 2"><g id="Layer_1-2" data-name="Layer 1"><path class="cls-1" d="M620.24,8.93a2.45,2.45,0,0,0-3.93.23C600.14,34,580.56,53.11,555,64.4c-23.69,10.47-46.18,23.85-68.6,36.43-1.23.63-3,.29-5-.79a1,1,0,0,1-.09-1.73c3-2.1,6-4.3,9.13-6.12,18.79-10.75,37.93-22.42,57.1-32.22,29.27-15,44.69-31.4,61.89-53.69,6.37-8.27,11.84-8.13,19.57-1,10.49,9.67,17.17,21.05,19.87,35.65,6.58,35.63,5.05,70.93-7.55,104.4-7.66,20.37-20.86,38.87-33,57.27-8.6,13-19,25-29.59,36.58-22.65,24.67-51.55,40.86-80.12,57.49-28.73,16.71-58.26,32.42-80.63,58-4.41,5-8.5,10.37-13,15.87a1.06,1.06,0,0,0-.21.86c2.74,13,6.19,26.61,8.29,40.41,3.93,25.72,6.33,46.1,9.76,71.89.27,2,1.84,12.35,2.89,17.23,1.21,5.64.37,5.56-7.85,6.29-11.61,1-15-1.24-15.89-11.27-2.52-28.25-3.76-56.66-7.61-84.72-3.41-25-5.26-36.72-11.93-62.08-3.82-14.52-10.58-32.9-20.33-48.82-1.44-2.35-5-7.37-5.17-9.74s.8-4.8,1.53-7.22a1,1,0,0,1,1.55-.56c1.73,1.18,3.66,2.25,4.48,3.89,16,23.1,27.54,44.8,34.71,70.69.43.89.88,1.77,1.34,2.68a1,1,0,0,0,1.69.19c33.84-40.29,76.9-68.55,120.5-96,28.76-18.09,53.91-40.27,73.65-67.58,23.6-32.63,42.2-67.58,44.24-109,1.2-24.37,1.85-47.71-14-70.79C625.06,14.46,623.09,12.31,620.24,8.93Z"/><path class="cls-1" d="M314.39,368.87a1.5,1.5,0,0,0-1.21-1.87c-15.64-2.48-30.26-5-44.94-7-24.52-3.4-49.44-4.85-73.51-10.18-21-4.64-41.22-12.89-61.37-20.62A235.6,235.6,0,0,1,59.8,284.34C25.43,253.47,4.14,215.33.2,169.08c-1-11.71,1.89-24.65,6.67-35.88,3-7,9.35-7.83,13.91-2.16,11.62,14.47,27.33,18.12,44.57,19.48,17.45,1.38,34.79,3.18,52.27,3.73,16.39.52,25.15,0,37.75-.6,30.85-1.53,61.72-5,92.53.44l.12,0a1.49,1.49,0,0,1-.29,2.95c-9.6-.07-18.55-.14-27.49.13-29.08.89-58.14,2.51-87.22,3.1-20.55.41-38.33,0-58.89-.69-9.23-.33-22.42-1.36-30.42-3.49-9.22-2.46-15-6-20.88-13.1a35.85,35.85,0,0,0-5.55-5.69c-.61-.46-2.27-1.46-3.45-.42-2.29,2-3.25,5-3.71,7.52-2.59,14.27-2.89,28.52,1.4,42.76,10.44,34.58,27,65.48,55.42,88.4,38.7,31.17,81.92,53.27,131.47,61.85,37.33,6.45,74.54,13.56,111.87,20,5.9,1,6.09,1.49,8.51-4.33.88-2.13,4.62-1.37,6.86-.9,2.42.52,4.53,1.49,4.89,3.2a15.85,15.85,0,0,1-.32,6.88c-3.65,16.61-8,33.05-11.58,49.68-5.16,24.18-9.66,48.51-14.89,72.68-.75,3.48-2.77,9-6.15,9.14a84.27,84.27,0,0,1-18-1.89c-2.49-.55-.86-4.72-.18-6.91,8.06-26,16.47-52,24.47-78.06C307.57,394.9,310.63,382.66,314.39,368.87Z"/><path class="cls-1" d="M409.39,124.7a2.17,2.17,0,0,1,.35,2.25c-.83,2.69-1.9,4.81-3.73,6.09-18.22,12.67-31,23.41-49.69,39.28a89.63,89.63,0,0,0-16.75,18.88c-2.66,4-3.83,4.25-4.83,3.43-1.33-1.08-4.18-4-4.12-5.47.17-4.32,3.69-10.18,6-12.85a184.33,184.33,0,0,1,22.58-21.13c7.94-6.32,16.54-12.08,25.1-18,7.07-4.91,15-8.7,22.7-12.83a1.94,1.94,0,0,1,2.33.35Z"/><path class="cls-1" d="M299.56,165.24c9.39,3.56,17.69,9,27.87,14.24a.52.52,0,0,1-.1,1c-7.35,1.88-22.57-6.15-28.84-13.26C297.66,165.89,298.86,165,299.56,165.24Z"/><path class="cls-1" d="M118.5,546.84a15.69,15.69,0,0,1-.61,4.47c-.41,1.35-.84,2.8-1.29,4.33l-3.38,12.6q-2.72,9.88-5.42,20t-4.94,20.52q-2.23,10.37-3.66,20.79a151.82,151.82,0,0,0-1.42,20.58q0,3.93.13,8a39,39,0,0,0,1.09,8,12.22,12.22,0,0,0,.81,2.57,12.3,12.3,0,0,1,.81,2.58,6.27,6.27,0,0,1-1.22.13H98.18a8,8,0,0,1-5.07-1.62,10,10,0,0,1-3.19-4.34,50.61,50.61,0,0,1-1.69-6.29c-.5-2.4-.9-4.88-1.22-7.45s-.54-5.1-.68-7.59-.2-4.67-.2-6.56a58.36,58.36,0,0,1,.34-6.3c.22-2.12.43-4.22.61-6.3q.27-2.7.54-5.55t.68-5.55a145.2,145.2,0,0,1,3.79-17.81q2.43-8.73,4.74-17.54l.81-2.84c.36-1.27.75-2.58,1.15-3.93s.77-2.64,1.09-3.86a12.49,12.49,0,0,0,.47-2.51l-1.49,2q-5.28,7.44-10.29,15.16T79,598.17q-3.11,5.42-5.82,11.17t-5,11.72a4.26,4.26,0,0,0-.27,1.21,4.11,4.11,0,0,0,.34,1.63,4.28,4.28,0,0,1,.34,1.62,1.1,1.1,0,0,1-.61,1,2.59,2.59,0,0,1-1.29.34,2.17,2.17,0,0,1-1.35-.41l-.55.68-1.62-.54c-.54-.18-1-.36-1.49-.54a6.3,6.3,0,0,1-3.39-3.25,18.07,18.07,0,0,1-1.49-5,32.21,32.21,0,0,1-.34-5.48c.05-1.85.07-3.45.07-4.81q0-10.69.61-21.26t1.7-21.13q-6.11,11.39-11.18,23T38.33,612a120.1,120.1,0,0,0-3.8,14.9l-.27,1.22-1.49.13a4.78,4.78,0,0,1-.13-1.35,13.5,13.5,0,0,1,.2-2.24c.14-.76.29-1.51.48-2.23a80.75,80.75,0,0,1,5-16.52q3.38-8,6.63-16a31.67,31.67,0,0,1,1.49-3.32,27.72,27.72,0,0,0,1.49-3.45l.27-.95a43.5,43.5,0,0,1,2.57-5.55A41.22,41.22,0,0,0,53.36,571a59.29,59.29,0,0,0-2.71,5.55q-1.21,2.85-2.57,5.55-3.66,7.73-6.78,15.64t-6.09,16a47.21,47.21,0,0,0-3,13.14,3.38,3.38,0,0,1-.07.74,5.28,5.28,0,0,1-.2.75l-.68-.54-1.35,1.49a25.27,25.27,0,0,0-2.51-1.22,8.83,8.83,0,0,1-2.37-1.49,16.26,16.26,0,0,1-2.57-3.05A24.3,24.3,0,0,1,19,615.37a18.41,18.41,0,0,1-.48-3.93,80.75,80.75,0,0,1,.88-11.65q.88-6,2.37-11.91c1-4,2.12-7.88,3.39-11.72s2.57-7.52,3.93-11q1.62-4.32,3.52-8.39t3.65-8.26a8.94,8.94,0,0,0-2.37.74c-1.21.5-2.66,1.15-4.33,2l-5.48,2.64q-3,1.41-5.9,2.64t-5.55,2a15.85,15.85,0,0,1-4.53.81,5.66,5.66,0,0,1-4.47-2,10.06,10.06,0,0,1-2.31-4.47A1,1,0,0,1,2.3,552a2,2,0,0,1,1.09.34,2.55,2.55,0,0,0,1.35.33,22.71,22.71,0,0,0,7-1.62q4.54-1.62,9.48-3.79t9.48-4.47q4.55-2.31,7.11-3.52,2.72-1.35,5.22-2.78c1.67-1,3.4-1.83,5.21-2.64l1.08,1.76H50l1.76,3-.13.54a5.12,5.12,0,0,1,.74,1,2.22,2.22,0,0,1,.34,1.22,14.84,14.84,0,0,1-1.22,3.32q-1.22,2.77-2.71,6.09c-1,2.21-2,4.36-3,6.43a45.11,45.11,0,0,0-1.89,4.34Q39.82,572.17,36.29,583a131,131,0,0,0-5.14,22.35c-.18,1-.34,2-.48,3.11a26.16,26.16,0,0,0-.2,3.12q5.28-13.68,11.11-26.89t13-25.93q1.62-3,3.45-5.89a26.67,26.67,0,0,1,4.27-5.22c.81-.72,1.64-1.39,2.5-2s1.74-1.31,2.64-2l1.22.68-.13,1,.94-.82,1.49.41-2.3,5.42h.14l2.57-5,.41,1.08.94-.81-3.11,10.42.41.14q.81-2.29,1.48-4.74a24.58,24.58,0,0,1,1.9-4.74l1.76,1.22v1.76a7.85,7.85,0,0,1-.2,1.35c-.14.64-.27,1.29-.41,2s-.27,1.35-.4,2-.25,1.2-.34,1.56c-.54,2.62-1,5.23-1.42,7.85s-.8,5.24-1.16,7.86l-3,25.59a15.7,15.7,0,0,0-.27,2.78v2.77a6.66,6.66,0,0,0,1-1.35c.36-.63.75-1.31,1.15-2s.79-1.44,1.15-2.17.68-1.31,1-1.76c1.36-2.35,2.8-4.67,4.34-7s3.06-4.58,4.6-6.84q4.47-6.51,8.87-12.8t9.14-12.53a47.66,47.66,0,0,1,3.39-4.26,46.37,46.37,0,0,0,3.38-4.27,17.36,17.36,0,0,0,1.49-2.37,12.16,12.16,0,0,1,1.63-2.37,5.31,5.31,0,0,1,1-1,2.17,2.17,0,0,1,1.29-.34,3.89,3.89,0,0,1,1.76.4,5.47,5.47,0,0,0,1.76.54l-.13.28,1.62,1.35.14,1,.54-.41Zm-97.92,6.23a.42.42,0,0,0,.28-.13c-.1,0-.14,0-.14.06S20.67,553.07,20.58,553.07Zm9.35-8-.14-.13v.13Zm.68,73.27v-.88a2.75,2.75,0,0,1,.13-.88,1.45,1.45,0,0,0-.27.81,1.45,1.45,0,0,1-.27.81A.56.56,0,0,1,30.61,618.35Zm.4,6a.89.89,0,0,1,.07-.41,1,1,0,0,0,.07-.41,2.11,2.11,0,0,0-.27.82Zm4.61-78.15a8.23,8.23,0,0,0-2,.82c-.64.36-1.31.72-2,1.08l3.8-1.62Zm-4.07,67.72a6.43,6.43,0,0,1,.95-1.76l-.4.13Zm.41,9.88-.14.14H32Zm.27-5.14-.13-.14V619Zm1.63-10.7a1,1,0,0,0-.61.81,9.81,9.81,0,0,1-.21,1.08ZM34,624.17l-.13.14H34Zm1.36-20a.94.94,0,0,0-.68.94v.41Zm-.14,5.28-.14-.14v.14Zm0,9.61h-.14v.14ZM36,607h-.13l.13.14ZM36.16,546a5.42,5.42,0,0,0,1.76-.68.78.78,0,0,1-.14-.54,5.41,5.41,0,0,1-.81.68Zm1.35,57.15h-.13l.13.13Zm4.07-9.48-.14-.14v.14ZM47,576.91c0-.09,0-.14.07-.14s.07,0,.07-.13A.4.4,0,0,0,47,576.91Zm.54-1.22.48-1a6.77,6.77,0,0,1,.47-.81c-.45.18-.7.43-.74.74S47.62,575.33,47.53,575.69ZM50.11,570a2.64,2.64,0,0,0,1.08-1.29,8.6,8.6,0,0,0,.41-1.55c-.19.45-.41.92-.68,1.42S50.38,569.55,50.11,570Zm2-3.79a.78.78,0,0,0,.54-.27ZM60,558.62h-.13a.79.79,0,0,0-.14.55Zm0-5.41-.13-.14v.14Zm4.2,53.63h-.13v.4h.13Zm0,1.35h-.13v.95h.13Zm0,2.3h-.13v1.36h.13Zm.14-6.77q.81-9.08,1.69-18.08t1.83-18.08l-.41.54q-.68,4.47-1.15,8.94T65.41,586c-.18,2.08-.41,4.33-.68,6.77a61.83,61.83,0,0,0-.4,6.77Zm.13,1.08h-.13v.41h.13Zm3.25-38.32a1.33,1.33,0,0,0,.07.47,1.73,1.73,0,0,1,.07.48l1.22-6.23-.41-.14c-.18.81-.38,1.72-.61,2.71A12.08,12.08,0,0,0,67.71,566.48Zm1.36-6.37h.13v-.81h-.13Zm.27-2,.27.14a2.79,2.79,0,0,1,.07-.61,3.58,3.58,0,0,0,.06-.61h-.13Zm5.82,42.8H75l-.14.4Zm16.66-26.55h-.14a.13.13,0,0,0,.14.14Zm4.6,47h-.13v.54h.13Zm.27-1.49a.83.83,0,0,1,.14-.55h-.27v.55Zm1-5.29a.43.43,0,0,0-.27-.13V615L97.1,616h.27V615Zm.41-1.62a11.41,11.41,0,0,1,.27-2h-.27l-.41,1.89Zm.54-3.12a5.3,5.3,0,0,1,.07-.94c0-.27.11-.59.2-1l-.68,1.89Zm.54-3.38a.56.56,0,0,0,.14-.41l-.14-.13Zm.54-2-.27.54.27.13Zm.41-1.63a.36.36,0,0,1,.14-.27h-.14Zm1-3.25-.81,1.36a.36.36,0,0,0,.27.13Zm1.49-6.9-.14.13h.14Zm.81-2.71a.4.4,0,0,0,.14-.27l-.14-.14Zm1.35-4.47h-.13l-.27.4Zm10.84-37.65a2.83,2.83,0,0,0,.47-.61,1.35,1.35,0,0,0,.2-.74c-.09,0-.13-.05-.13-.14V546Z"/><path class="cls-1" d="M140.57,603.58l1.08-1.08-.13.81.41-.81h-.28l.28-.4v.4l.27-.54h.13l.54-1,.28.14a54.44,54.44,0,0,1-4.68,9.07q-2.78,4.34-5.48,8.67-1.5,2.43-3,4.94c-1,1.67-2,3.27-3.12,4.81-1.35,2-3,4.26-4.94,6.84s-3.68,4.71-5.21,6.43a2.8,2.8,0,0,1-1.29.81,6.63,6.63,0,0,1-1.42.14,7.44,7.44,0,0,1-4.88-1.56,5.71,5.71,0,0,1-1.89-4.67,59,59,0,0,1,1.08-11.17q1.08-5.62,2.57-10.77c.73-2.71,1.4-5.42,2-8.13a50.63,50.63,0,0,0,1.22-8.26v-.54a2.43,2.43,0,0,0-.2-1,2.51,2.51,0,0,1-.2-1,.65.65,0,0,1,.47-.61c.32-.13.56-.25.75-.34a16.41,16.41,0,0,1,7.65,3.12q3.18,2.43,3.18,7.31a25.28,25.28,0,0,1-1.08,7.45q-1.1,3.52-2.17,7.18l-3,10c0,.09,0,.13-.07.13s-.07,0-.07.14v.13l.14.27a84.73,84.73,0,0,0,5.35-7.38q2.5-3.85,5.08-7.65a37.63,37.63,0,0,1,3.25-4.33c1.17-1.36,2.3-2.75,3.38-4.2a13.23,13.23,0,0,0,1.7-2.44,10.34,10.34,0,0,1,1.83-2.43l-.68,1.21.95-1.08q-1.63,2.71-3.46,5.35a36,36,0,0,0-3.18,5.62l1.35-1.62a11.57,11.57,0,0,0,1.22-1.77,34.59,34.59,0,0,0,2-3.65,11.52,11.52,0,0,1,2.37-3.39Zm-26.81,33.59H114q1.48-6,3.18-11.78t3.32-11.78a16.83,16.83,0,0,0-1.76,4.53c-.36,1.58-.77,3.14-1.22,4.68-.72,2.34-1.45,4.71-2.17,7.11A50.72,50.72,0,0,0,113.76,637.17Zm9.48-62.57.67.14v1a2.61,2.61,0,0,0,1-.68l1.36.68-.27.95,1.62.27v1.35l.68-.14a2.79,2.79,0,0,1,1.35,2.31,14.87,14.87,0,0,1-.74,4.67,14.6,14.6,0,0,0-.75,4.67,13.76,13.76,0,0,0,.27,2.71,13.84,13.84,0,0,1,.27,2.71,2.42,2.42,0,0,1-1.21.4,2.28,2.28,0,0,1-1.29-.4,1.67,1.67,0,0,0-1.29-.27,7.57,7.57,0,0,1-2.3-2.1,21.15,21.15,0,0,1-2-3.12,17.45,17.45,0,0,1-1.36-3.38,11.67,11.67,0,0,1-.47-3.18,14,14,0,0,1,.27-2.31,18.61,18.61,0,0,1,.81-3,13,13,0,0,1,1.29-2.64,2.08,2.08,0,0,1,1.69-1.15Zm-4.34,58.51a9.13,9.13,0,0,1,.68-.61c.27-.23.5-.43.68-.61q4.06-6.09,8.12-12t8.26-12c-1.08,1.17-2.16,2.35-3.25,3.52a19.81,19.81,0,0,0-2.7,3.66c-1.18,1.89-2.37,3.77-3.59,5.62s-2.42,3.72-3.59,5.62a30.88,30.88,0,0,1-2.37,3.31A17.86,17.86,0,0,0,118.9,633.11Zm2-21h-.28v.81a.46.46,0,0,0,.14-.34A1,1,0,0,1,120.94,612.12Zm4.33,15.3a1.08,1.08,0,0,0-.75.54,6.77,6.77,0,0,1-.47.81Zm1.76-2.3c-.9.18-1.36.59-1.36,1.22v.27Zm3.79-5.28.54-.41q.27-.54.54-1a9.67,9.67,0,0,0,.55-1.15,5.42,5.42,0,0,1-.75,1.29A12.74,12.74,0,0,0,130.82,619.84Zm3.52-4.34.41-.4a.56.56,0,0,1-.41-.14c.18-.36.34-.7.48-1s.29-.66.47-1l-1.63,2.3.68-.27Zm2.85-4.74h-.28l.41-.67v-.55a10.14,10.14,0,0,0-1.22,2l.54-.28.27-.54a.78.78,0,0,1,.14.54A.76.76,0,0,0,137.19,610.76Zm-.55,1,.41-.41h-.27A.58.58,0,0,0,136.64,611.71Zm.82-1.49h-.14v.27A.4.4,0,0,0,137.46,610.22Zm.94-1.76a2,2,0,0,1,.14-.74,2,2,0,0,0,.14-.75l-1.22,2.3L138,609v.41l.27-.41H138Zm0,0v.41l.28-.41a.79.79,0,0,1,.13-.54h-.13v.54Zm2.17-4.88a1.56,1.56,0,0,1-.54,1.09l.54-.14.14-.54Zm.41.82-.27.13-.14.41Zm-.27-1.63a6.79,6.79,0,0,0,.4-.95c.09-.27.18-.58.27-.94l.27.13A4.83,4.83,0,0,1,140.71,602.77Zm1.35-.81v-.14h-.13v.28Zm.14-.54v.4h-.14Zm.13.4h-.13V602Z"/><path class="cls-1" d="M157.83,624.58l1.08-1.09a2,2,0,0,0,1.09.68,5,5,0,0,0-.48.88,4.92,4.92,0,0,1-.47.88,9.54,9.54,0,0,1-2.44,2.37,34.56,34.56,0,0,1-3.53,2.17,22.23,22.23,0,0,1-3.87,1.62,11,11,0,0,1-9-.81,15,15,0,0,1-4.41-3.66,15.66,15.66,0,0,1-2.78-5.14,18.58,18.58,0,0,1-1-5.76,32.37,32.37,0,0,1,1.22-7.92,41.56,41.56,0,0,1,3.54-9,29.8,29.8,0,0,1,5.44-7.38,9.9,9.9,0,0,1,7.08-3A11.49,11.49,0,0,1,156.6,592a18.88,18.88,0,0,1,5.1,6,5.8,5.8,0,0,1,.67,2.58,10,10,0,0,1-.54,3.31,10.09,10.09,0,0,0-.54,3.32,5.36,5.36,0,0,0,.34,2,17.58,17.58,0,0,1,.61,2,7.93,7.93,0,0,1-5.24-2.64,8.1,8.1,0,0,1-1.94-5.49,14.46,14.46,0,0,1,1.38-5.82h-.95a8.79,8.79,0,0,0-1.56.14,3.19,3.19,0,0,0-1.42.67,20.34,20.34,0,0,0-5.16,5.55,29.63,29.63,0,0,0-3.19,7,39.33,39.33,0,0,0-1.56,7.65,74,74,0,0,0-.4,7.58,4.22,4.22,0,0,0,.06.75,7.14,7.14,0,0,0,.21.74,15.66,15.66,0,0,0,6.11-1.62,49.68,49.68,0,0,0,5.31-3.25,8.8,8.8,0,0,1,1.9-.95l2.44,1.9Zm-17.26-26.14a6.6,6.6,0,0,0,1.9-1.76c.72-.9,1.26-1.63,1.62-2.17a1.33,1.33,0,0,0-.88.48,12.49,12.49,0,0,0-1,1.15c-.37.45-.7.9-1,1.35A8.44,8.44,0,0,0,140.57,598.44Zm8.67-1.63-1.22.41a5.83,5.83,0,0,0-1.76,1.56,18.4,18.4,0,0,0-1.76,2.57c-.54.95-1,1.9-1.49,2.84a21.82,21.82,0,0,0-.95,2.24h.14a4.26,4.26,0,0,1,.54-1,9.19,9.19,0,0,0,.67-1c1-1.45,1.92-2.78,2.78-4a23.55,23.55,0,0,1,3.18-3.59Zm-5.64,2c.45-.46.86-.84,1.22-1.16a8.08,8.08,0,0,0,1.08-1.15,3.06,3.06,0,0,0-2.3,2.31Zm14-.14a.38.38,0,0,0-.13.27h.13Zm.68,24.38c0,.09,0,.13-.07.13s-.06,0-.06.14h.13Z"/><path class="cls-1" d="M206.66,593a31,31,0,0,1-.88,7.18q-.89,3.66-1.56,7.18-1.5,8.4-3.25,16.86a82.79,82.79,0,0,0-1.76,17,25.23,25.23,0,0,0,.13,2.64,13.91,13.91,0,0,0,.55,2.65.32.32,0,0,0,.06.2.24.24,0,0,1,.07.2.89.89,0,0,1-.07.41,1,1,0,0,0-.06.4,7.3,7.3,0,0,1-1.63.14,8.09,8.09,0,0,1-5.28-2,7.07,7.07,0,0,1-2.71-4.88,22.71,22.71,0,0,1-.14-2.5V636c0-1.53,0-3.09.07-4.67s.16-3.14.34-4.67q1.08-9.21,2.37-17.61a125.25,125.25,0,0,1,4-17.33l-.27-.27-4.2,3.52a23.57,23.57,0,0,0-3.79,4.26,51.54,51.54,0,0,0-3.12,4.81,94.09,94.09,0,0,0-6.43,13.27A85.69,85.69,0,0,0,175,631.35c-.19.9-.36,1.67-.54,2.3a13.89,13.89,0,0,1-5.56-1.63,7.73,7.73,0,0,1-3-3.25,13.18,13.18,0,0,1-1.29-4.6,53.32,53.32,0,0,1-.27-5.55,111.73,111.73,0,0,1,2-21.2q2-10.49,4.33-20.92c.63-2.8,1.27-5.6,1.9-8.4s1.4-5.55,2.3-8.26,1.74-5.19,2.78-7.72,2-5,3-7.58c.28-.63.55-1.29.82-2a6.7,6.7,0,0,1,1.08-1.83c.45.27.81.47,1.08.61a2.56,2.56,0,0,0,1.09.2,3.82,3.82,0,0,1,2.16.88,15.73,15.73,0,0,1,1.9,1.56,4.68,4.68,0,0,1,.88,1.08,4.6,4.6,0,0,1,.34,1.36v1.08a24.12,24.12,0,0,1-.54,4.6q-.54,2.71-1.36,5.62c-.54,2-1.1,3.84-1.69,5.69s-1.06,3.45-1.42,4.81q-1.5,5.55-2.84,10.9T179.44,590c-.19.73-.43,1.7-.75,2.91s-.65,2.49-1,3.8-.66,2.55-.88,3.72a15.11,15.11,0,0,0-.34,2.71.54.54,0,0,0,.07.27.66.66,0,0,1,.06.27q2-3,3.79-5.42a41.78,41.78,0,0,1,3.8-4.53,51.65,51.65,0,0,1,4.33-4,61.61,61.61,0,0,1,5.42-3.93,8,8,0,0,1,1.49-.81,4.36,4.36,0,0,1,1.62-.27,7.57,7.57,0,0,1,3.73,1,30.4,30.4,0,0,1,3.31,2.1,6.29,6.29,0,0,1,2,2.16A6.66,6.66,0,0,1,206.66,593Zm-36-3.93h-.13v.28h.13Zm.27-1.08a1.08,1.08,0,0,1,.07-.41.82.82,0,0,0,.07-.4l-.41.68Zm.14-1a1.48,1.48,0,0,0,.14-.67H171Zm.41-2.57a1.52,1.52,0,0,0-.14.68h.27A1.1,1.1,0,0,1,171.45,584.49Zm.13,30.2a.52.52,0,0,0-.07-.34.59.59,0,0,1-.06-.34,1.52,1.52,0,0,0-.14.68Zm.27-3.66a7.54,7.54,0,0,0-.27,1.63h.27Zm3-18q-.95,4.47-1.76,8.94t-1.22,8.94a32.06,32.06,0,0,0,1-3.59c.27-1.31.52-2.69.75-4.13s.45-2.85.67-4.2.48-2.62.75-3.79q2.29-10.56,5.14-21t5.56-21l-.27.13q-1.5,4.6-2.92,9.08c-.94,3-1.83,6-2.64,9.07q-1.49,5.41-2.71,10.77T174.83,593Zm-2.44-12.32a.79.79,0,0,0-.13.54h.13Zm0-.14a.78.78,0,0,0,.27-.54l-.27-.13Zm.41-1.89.27.13a7.83,7.83,0,0,1,.07-1.08,9.79,9.79,0,0,0,.07-1.08l.27-.14c.27-1,.52-1.92.74-2.78s.43-1.78.61-2.77a12.65,12.65,0,0,0-1,2.77c-.23.95-.43,1.92-.61,2.92Zm.54,9.21v.54h.14v-.54Zm.95-3.8a.86.86,0,0,1-.07.41,1,1,0,0,0-.07.41l-.27.94h.27l.41-1.62Zm8.8,19.5a16.13,16.13,0,0,0-2.57,3.8q-1.35,2.57-2.64,5.48c-.86,1.94-1.6,3.86-2.24,5.76s-1.08,3.38-1.35,4.47a1.11,1.11,0,0,0-.07.67,1.07,1.07,0,0,1-.07.68,3,3,0,0,0,.68-1.22q1.08-3.24,2.24-6.5a60.84,60.84,0,0,1,2.64-6.36l3.38-6.5ZM174.56,583a.4.4,0,0,0,.14.27V583Zm0,34.13h.14V617Zm.41-35.89a1.52,1.52,0,0,0-.14.68l.27.13A1.89,1.89,0,0,1,175,581.24Zm.27,29.12h.27l1.22-2.58Zm3.93-45.24c-.64,2.08-1.22,4.18-1.77,6.3s-1,4.22-1.49,6.3a6.31,6.31,0,0,0,.75-2c.32-1.17.65-2.48,1-3.93s.67-2.8.94-4.06l.55-2.58.27-.81.13-.54a.79.79,0,0,0-.13.54A1.91,1.91,0,0,0,179.17,565.12Zm-1.49,52.82-.14-.14v.14Zm0-58.1a.4.4,0,0,0,.27-.13v-.14Zm.67-2h.14v-.13Zm.41,56.88h-.14l.14.14Zm1-8.53a.38.38,0,0,1,.13-.27h-.13Zm.13-43.2.14-.41h-.14Zm.14,17.33-.14.14H180Zm.13-18.55h.14v-.27h-.14Zm.27-1.22h.14v-.14Zm1,14.49a.4.4,0,0,1,.14-.27h-.14Zm1.63-5.55h-.14v.13Zm.54-2.17h-.14v.14Zm-.14,36a1.53,1.53,0,0,1,.27-.4.56.56,0,0,0,.14-.41,1.61,1.61,0,0,1-.27.41A.54.54,0,0,0,183.36,603.31Zm.41-37a.13.13,0,0,0-.14.14h.14Zm2.44-16c-.18.73-.36,1.63-.54,2.71q.27-.68.54-1.29a3.09,3.09,0,0,0,.27-1.28Zm.4-1h.14a.78.78,0,0,0-.14-.54l.41-.54-.14-.13a2.36,2.36,0,0,1-.27.67Zm11.24,75.3h-.13v.54l.13-.13Zm.55-4.06h-.14c0,.09,0,.13.07.13s.07.05.07.14Zm.67-4.34-.27,1h.27Zm2-9.07c.46-1.89.86-3.77,1.22-5.62s.68-3.72,1-5.62c-.9,3.07-1.65,6.12-2.23,9.14s-1.15,6.12-1.7,9.28a17,17,0,0,0,1-3.59C200.58,609.52,200.83,608.32,201.1,607.24Zm2.44-12.32h-.27v.67Z"/><path class="cls-1" d="M236.72,599.79a12.49,12.49,0,0,1-1.95,6.77,19.34,19.34,0,0,1-5,5.35,25.48,25.48,0,0,1-6.59,3.52,20.34,20.34,0,0,1-6.93,1.29,5.1,5.1,0,0,0-.4,2.24v2.23c0,.36,0,.9.06,1.63a12.43,12.43,0,0,0,.34,2.16,7,7,0,0,0,.73,1.9,1.33,1.33,0,0,0,1.13.81,5.71,5.71,0,0,0,3.66-1.22,6.66,6.66,0,0,0,2.2-3.11l.14-.14v.41a2.62,2.62,0,0,1-.61,1.69,4.9,4.9,0,0,0-.88,1.56,3.08,3.08,0,0,0,1.49-1.42,11.18,11.18,0,0,1,1.08-1.83,2.37,2.37,0,0,1,.27.68,1.67,1.67,0,0,1-.41,1.15,2.46,2.46,0,0,0-.54,1.15l.95.13-.13.41.27.13v-.13h.4l-.13-.27H226l.14-.54h.13l.27-.55v.55a1.86,1.86,0,0,0,.55-1.36l.54-.67a6.41,6.41,0,0,1-2.58,4.73,8.22,8.22,0,0,1-5.14,1.77q-6.23,0-9.68-3.8a14.06,14.06,0,0,1-3.46-9.88,26.53,26.53,0,0,1,1.83-9.62,38.08,38.08,0,0,1,4.67-8.66,14.38,14.38,0,0,1,12.33-6.51,11.88,11.88,0,0,1,1.82.14,14.83,14.83,0,0,1,1.83.41l-2.71-5,1.09-.28a13.74,13.74,0,0,1,6.57,4.54A12,12,0,0,1,236.72,599.79Zm-24.92,6.37c-.09,0-.13,0-.13.13h.13Zm.68-2-.41.67.27.14Zm.13-.27-.13.13h.13Zm2.17-3c0-.18,0-.3.07-.34a.59.59,0,0,0,.07-.34l.4-.14a.52.52,0,0,0-.4.14l-.68,1.08-.27.41v.13a4,4,0,0,0-.48.61c-.13.23-.29.48-.47.75a1.78,1.78,0,0,0,.95-1.36l.27-.54Zm-.27,9.48a1.06,1.06,0,0,0-.13.67h.13Zm.41-6v0Zm.13,5.14a14.18,14.18,0,0,1,2-4.26,21.08,21.08,0,0,0,2.3-4.27,20.75,20.75,0,0,0-2.89,3.93A9,9,0,0,0,215.05,609.54Zm.54-6.77a1.19,1.19,0,0,0-.13.54A.77.77,0,0,0,215.59,602.77Zm.82-.81a.89.89,0,0,0-.21.34c0,.13-.11.2-.2.2h.14A.78.78,0,0,0,216.41,602Zm13.13-4.6a12.42,12.42,0,0,0-4.33,2,18,18,0,0,0-3.59,3.32,19.61,19.61,0,0,0-2.64,4.2,18.56,18.56,0,0,0-1.49,4.46,8.25,8.25,0,0,0,3.93-1.62,22.14,22.14,0,0,0,6.9-7.65,8.65,8.65,0,0,0,1.22-4.13Zm-9.61,3.25c-.09,0-.23.09-.41.27l.54-.27v-.14Zm8.8,4.19a.8.8,0,0,0-.13.55l-.41.27.41-.14v-.13Zm.68-.81a2.27,2.27,0,0,0,.27-.68l-.27.55Zm.68-1.49a.24.24,0,0,0,.27-.27h-.27Zm.81,5.15-.27.27Zm0-2.85H231l.14-.4Zm.13,2.85a.56.56,0,0,0,.41-.14A.56.56,0,0,0,231,607.65Zm3.12-5.15c-.18.27-.41.63-.68,1.08s-.56.93-.88,1.43a13.28,13.28,0,0,0-.81,1.42,2.56,2.56,0,0,0-.34,1,8.66,8.66,0,0,0,1.69-2.31A15.29,15.29,0,0,0,234.15,602.5Z"/><path class="cls-1" d="M261.5,536.28a1,1,0,0,1,.95-.81,5.23,5.23,0,0,1,3,1,11.27,11.27,0,0,1,2.64,2.57,16.37,16.37,0,0,1,1.9,3.32,8.33,8.33,0,0,1,.74,3.12,30,30,0,0,1-1,6.23c-.68,2.8-1.47,5.75-2.37,8.87s-1.81,6.09-2.71,8.94-1.58,5.07-2,6.7c-.55,1.81-1.13,3.63-1.76,5.48s-1.22,3.68-1.76,5.49l-7.32,26.14a128.69,128.69,0,0,0-3.11,13.27,75.5,75.5,0,0,0-1.22,13.54,21.11,21.11,0,0,0,.34,3.79,36.42,36.42,0,0,0,.88,3.79c.18.82.4,1.65.67,2.51a12.52,12.52,0,0,1,.55,2.5,3.46,3.46,0,0,0-.61.07,2.85,2.85,0,0,1-.61.07,8.19,8.19,0,0,1-4.95-1.63,15.37,15.37,0,0,1-3.72-3.79,12,12,0,0,1-2.3-5.69,48.13,48.13,0,0,1-.41-6.22,90.21,90.21,0,0,1,1.49-14.9q1.49-8.67,3.66-17.81T247,585.1q2.44-8.6,4.47-14.83.54-1.89,2.37-6.64t3.73-9.88q1.89-5.14,3.38-9.41a24.35,24.35,0,0,0,1.49-5.35A5.16,5.16,0,0,0,261.5,536.28Zm-16.79,95.47a7.27,7.27,0,0,0,.41-1.42c.08-.49.18-1,.27-1.42l1.08-6.23c.36-2.08.81-4.15,1.35-6.23q1.23-4.87,2.37-9.75T252.7,597q1.89-6.91,4.13-13.61t3.86-13.61a19.86,19.86,0,0,0-1.22,3q-.81,2.37-1.83,5.62t-2.1,7q-1.08,3.79-2.1,7.24c-.67,2.31-1.26,4.4-1.76,6.3s-.88,3.25-1.15,4.06q-2,7.05-3.59,14.22A122.49,122.49,0,0,0,244.71,631.75Zm17.06-65a1.8,1.8,0,0,0-.67,1.49Zm.41-1.22-.27-.14a4.82,4.82,0,0,0-.14,1.36Zm.68-2.3-.14-.14v.14Z"/><path class="cls-1" d="M281.41,536.28c.18-.54.49-.81.95-.81a5.26,5.26,0,0,1,3,1,11.27,11.27,0,0,1,2.64,2.57,16.33,16.33,0,0,1,1.89,3.32,8.17,8.17,0,0,1,.75,3.12,29.48,29.48,0,0,1-1,6.23c-.67,2.8-1.47,5.75-2.37,8.87s-1.8,6.09-2.71,8.94-1.58,5.07-2,6.7c-.54,1.81-1.13,3.63-1.76,5.48s-1.22,3.68-1.76,5.49l-7.31,26.14a128.72,128.72,0,0,0-3.12,13.27,76.43,76.43,0,0,0-1.22,13.54,22.07,22.07,0,0,0,.34,3.79c.23,1.27.52,2.53.88,3.79.18.82.41,1.65.68,2.51a13.21,13.21,0,0,1,.54,2.5,3.68,3.68,0,0,0-.61.07,2.79,2.79,0,0,1-.61.07,8.18,8.18,0,0,1-4.94-1.63,15.37,15.37,0,0,1-3.72-3.79,12.1,12.1,0,0,1-2.31-5.69,48.11,48.11,0,0,1-.4-6.22,89.14,89.14,0,0,1,1.49-14.9q1.48-8.67,3.65-17.81t4.61-17.74q2.43-8.6,4.47-14.83.54-1.89,2.37-6.64t3.72-9.88q1.89-5.14,3.39-9.41a24.35,24.35,0,0,0,1.49-5.35A5.16,5.16,0,0,0,281.41,536.28Zm-16.79,95.47a7.26,7.26,0,0,0,.4-1.42c.09-.49.18-1,.27-1.42.36-2.08.73-4.15,1.09-6.23s.81-4.15,1.35-6.23q1.22-4.87,2.37-9.75t2.51-9.75q1.89-6.91,4.13-13.61t3.86-13.61a19.86,19.86,0,0,0-1.22,3q-.81,2.37-1.83,5.62t-2.1,7q-1.08,3.79-2.1,7.24c-.68,2.31-1.26,4.4-1.76,6.3s-.88,3.25-1.15,4.06q-2,7.05-3.59,14.22A120.46,120.46,0,0,0,264.62,631.75Zm17.06-65a1.81,1.81,0,0,0-.68,1.49Zm.41-1.22-.27-.14a4.47,4.47,0,0,0-.14,1.36Zm.67-2.3-.13-.14v.14Z"/><path class="cls-1" d="M306.73,599.79a12.49,12.49,0,0,1-2,6.77,19.34,19.34,0,0,1-5,5.35,25.48,25.48,0,0,1-6.59,3.52,20.34,20.34,0,0,1-6.93,1.29,5.1,5.1,0,0,0-.4,2.24v2.23c0,.36,0,.9.06,1.63a12.43,12.43,0,0,0,.34,2.16,7,7,0,0,0,.73,1.9,1.33,1.33,0,0,0,1.13.81,5.76,5.76,0,0,0,3.67-1.22,6.71,6.71,0,0,0,2.19-3.11l.14-.14v.41a2.62,2.62,0,0,1-.61,1.69,4.9,4.9,0,0,0-.88,1.56,3.08,3.08,0,0,0,1.49-1.42,11.18,11.18,0,0,1,1.08-1.83,2.37,2.37,0,0,1,.27.68,1.71,1.71,0,0,1-.4,1.15,2.38,2.38,0,0,0-.55,1.15l.95.13-.13.41.27.13v-.13h.4l-.13-.27H296l.14-.54h.13l.27-.55v.55a1.86,1.86,0,0,0,.55-1.36l.54-.67a6.44,6.44,0,0,1-2.57,4.73,8.27,8.27,0,0,1-5.15,1.77q-6.22,0-9.68-3.8a14.06,14.06,0,0,1-3.46-9.88,26.53,26.53,0,0,1,1.83-9.62,38.08,38.08,0,0,1,4.67-8.66,14.38,14.38,0,0,1,12.33-6.51,11.88,11.88,0,0,1,1.82.14,14.83,14.83,0,0,1,1.83.41l-2.71-5,1.09-.28a13.69,13.69,0,0,1,6.57,4.54A12,12,0,0,1,306.73,599.79Zm-24.92,6.37c-.09,0-.13,0-.13.13h.13Zm.68-2-.41.67.28.14Zm.14-.27-.14.13h.14Zm2.16-3c0-.18,0-.3.07-.34a.59.59,0,0,0,.07-.34l.4-.14a.54.54,0,0,0-.4.14l-.68,1.08-.27.41v.13a4,4,0,0,0-.48.61c-.13.23-.29.48-.47.75a1.78,1.78,0,0,0,1-1.36l.27-.54Zm-.27,9.48a1.06,1.06,0,0,0-.13.67h.13Zm.41-6v0Zm.13,5.14a14.18,14.18,0,0,1,2-4.26,21.08,21.08,0,0,0,2.3-4.27,20.75,20.75,0,0,0-2.89,3.93A9,9,0,0,0,285.06,609.54Zm.55-6.77a1.09,1.09,0,0,0-.14.54A.76.76,0,0,0,285.61,602.77Zm.81-.81a.89.89,0,0,0-.21.34c0,.13-.11.2-.2.2h.14A.78.78,0,0,0,286.42,602Zm13.13-4.6a12.42,12.42,0,0,0-4.33,2,18,18,0,0,0-3.59,3.32,19.61,19.61,0,0,0-2.64,4.2,18.56,18.56,0,0,0-1.49,4.46,8.25,8.25,0,0,0,3.93-1.62,22.2,22.2,0,0,0,3.93-3.45,22.76,22.76,0,0,0,3-4.2,8.75,8.75,0,0,0,1.21-4.13Zm-9.61,3.25c-.09,0-.23.09-.41.27l.54-.27v-.14Zm8.8,4.19a.8.8,0,0,0-.13.55l-.41.27.41-.14v-.13Zm.68-.81a2.27,2.27,0,0,0,.27-.68l-.27.55Zm.68-1.49a.24.24,0,0,0,.27-.27h-.27Zm.81,5.15-.27.27Zm0-2.85H301l.14-.4Zm.13,2.85a.56.56,0,0,0,.41-.14A.56.56,0,0,0,301,607.65Zm3.12-5.15c-.18.27-.41.63-.68,1.08s-.56.93-.88,1.43a13.28,13.28,0,0,0-.81,1.42,2.56,2.56,0,0,0-.34,1,8.66,8.66,0,0,0,1.69-2.31A15.29,15.29,0,0,0,304.16,602.5Z"/><path class="cls-1" d="M344.38,629.72a10.8,10.8,0,0,1-2.85-3.32,21.17,21.17,0,0,1-2-4.6,32,32,0,0,1-1.08-5,32.7,32.7,0,0,1-.34-4.4,35.19,35.19,0,0,1,.61-6.43c.4-2.22.83-4.36,1.28-6.44.55-2.34,1.06-4.69,1.56-7s1.06-4.69,1.69-7a139.89,139.89,0,0,1,4.95-15.17q2.91-7.44,5.35-15.17c-.46.27-1.31.75-2.58,1.42s-2.59,1.38-4,2.1-2.71,1.36-3.93,1.9a8.25,8.25,0,0,1-2.37.81,3.21,3.21,0,0,1-2.37-1.35c-.77-.9-1.38-1.67-1.83-2.3l.27-.55-1.35-.94c.27-.28.52-.55.74-.82a2.68,2.68,0,0,1,.89-.67c1-.55,2-1,3-1.49a22.48,22.48,0,0,0,3.05-1.63,91.24,91.24,0,0,0,8.12-5q3.93-2.7,7.86-5.69c.36-.27.72-.52,1.08-.74a2.22,2.22,0,0,1,1.22-.34,23.16,23.16,0,0,1,3.73,3.79,7.77,7.77,0,0,1,1.82,4.88,5.44,5.44,0,0,1-.33,1.55c-.23.68-.5,1.4-.82,2.17s-.63,1.51-.94,2.24a9.9,9.9,0,0,0-.61,1.62L360.09,568c-1,2.62-1.92,5.26-2.78,7.92s-1.69,5.35-2.5,8.06a8.86,8.86,0,0,0,2,.13h3.59c1.3,0,2.55,0,3.72-.06s2-.07,2.57-.07c1.81,0,3.57,0,5.28.13a52.5,52.5,0,0,1,5.29.55,8.51,8.51,0,0,0,.54-1.63q1.08-3.79,2.71-9.68t3.65-12.06q2-6.15,4.27-11.57a37.67,37.67,0,0,1,4.4-8.27,1.87,1.87,0,0,1,1.49-.94,1.53,1.53,0,0,1,.68.13l.81,1.49.68-.13a5.93,5.93,0,0,1,.94,1.49l-.27.13.95.54c.18.46.43,1,.75,1.63a3.83,3.83,0,0,1,.47,1.62,13.71,13.71,0,0,1-.47,3.12c-.32,1.26-.7,2.55-1.15,3.86s-.93,2.59-1.43,3.86-.88,2.35-1.15,3.25q-1.89,5.68-3.59,11.51t-3.18,11.78q-2.83,10.43-5.21,20.31t-4.13,19.78q-1.77,9.89-2.78,19.9a206.19,206.19,0,0,0-1,20.86c0,.54,0,1.1-.07,1.69a3.58,3.58,0,0,1-.48,1.56c-1-.45-1.92-.88-2.77-1.29a5.69,5.69,0,0,1-2.24-2,20.23,20.23,0,0,1-3.11-7.65,44,44,0,0,1-.81-8.19,118.21,118.21,0,0,1,.74-13.28q.75-6.63,2-13.2t2.71-13.07q1.49-6.5,2.85-13a24.46,24.46,0,0,1,.74-3.18c.32-1,.61-2.06.88-3q-5.82.13-11.51.54t-11.51.54c-.27,1.09-.59,2.17-.95,3.25a21.74,21.74,0,0,0-.81,3.25q-1.5,7.32-2.17,13.82A133.86,133.86,0,0,0,348,626.2q0,1.21-.06,2.64a16.09,16.09,0,0,1-.34,2.64l-2.85-1.76v.14h-.4Zm11-78.68a19.25,19.25,0,0,0-3,1.35c-1.18.64-2.39,1.34-3.66,2.1s-2.5,1.54-3.72,2.31-2.24,1.37-3.05,1.82a17.61,17.61,0,0,0,2.64-1.22q2.1-1.08,4.47-2.37c1.58-.85,3-1.69,4.27-2.5A9.75,9.75,0,0,0,355.35,551Zm-9.75,1.35-.54.27a.44.44,0,0,0-.28.41v.14Zm2.71-1.35.81-.68a10,10,0,0,0-1.9,1.09l.54-.27A1.21,1.21,0,0,1,348.31,551Zm10-6.64-.14-.13-1.56,1.08c-.76.54-1.55,1.09-2.37,1.63l-2.3,1.55a7,7,0,0,1-1.49.88l-.54.55c1.44-.9,2.89-1.79,4.33-2.64A28.72,28.72,0,0,0,358.33,544.4ZM353.05,550l-.82.67h.27a.48.48,0,0,0,.55-.54Zm3.52-1.76-.14-.28-.27.41Z"/><path class="cls-1" d="M401.26,595.59l2.43,1.09c.82-1.09,1.74-2.3,2.78-3.66a47.65,47.65,0,0,1,3.39-3.93,20.7,20.7,0,0,1,3.86-3.18,8,8,0,0,1,4.33-1.28,9.58,9.58,0,0,1,4.47,1.21,16.9,16.9,0,0,1,7.11,7.32,10,10,0,0,1,1.15,4.47,25.86,25.86,0,0,1-1.49,8.39,52.67,52.67,0,0,1-3.79,8.47,52.1,52.1,0,0,1-5.28,7.72,73.1,73.1,0,0,1-5.83,6.29,32.6,32.6,0,0,1-3.52,2.85,10.2,10.2,0,0,1-4.2,1.62c-.45.09-.92.16-1.42.21s-1,.06-1.42.06a14.34,14.34,0,0,1-10.63-4.53,14.88,14.88,0,0,1-3.05-5,16.61,16.61,0,0,1-1.08-6v-1.62a21.71,21.71,0,0,1,1-5.55,41.51,41.51,0,0,1,2.65-6.84,24.23,24.23,0,0,1,3.85-5.76A6.42,6.42,0,0,1,401.26,595.59Zm-4.61,5.56,2.17-2.44a3.43,3.43,0,0,0-1.29,1.08C397.21,600.25,396.92,600.7,396.65,601.15Zm1.22,7.58h-.27V609Zm.95,18.15a22.94,22.94,0,0,0,8.67-4.54,39.8,39.8,0,0,0,7.17-7.65,50.21,50.21,0,0,0,5.28-9.28,42,42,0,0,0,3-9.41c.09-.45.18-.9.28-1.35a7.74,7.74,0,0,0,.13-1.36,3.77,3.77,0,0,0-.41-1.76,7.12,7.12,0,0,0-4,1.83,31.64,31.64,0,0,0-4.54,4.33,36.31,36.31,0,0,0-3.72,5.15,9.13,9.13,0,0,0-1.56,4.27,3.92,3.92,0,0,0,1.9,3.25,1.6,1.6,0,0,1-1.36.81,5.69,5.69,0,0,1-4.47-1.83q-1.62-1.83-3.11-3.72-1.5,3.78-2.71,7.65a26.2,26.2,0,0,0-1.22,7.92c0,1,.05,1.94.14,2.84A17.33,17.33,0,0,0,398.82,626.88Zm3.11-26.14.14-.27a11.48,11.48,0,0,0-2.17,3c-.54,1.08-1,2.21-1.49,3.39.18-.28.45-.68.82-1.22s.74-1.15,1.15-1.83l1.08-1.83A2.74,2.74,0,0,0,401.93,600.74Zm-3,1a3,3,0,0,0,1.22-1.9Zm8.27-6a5,5,0,0,1,.94-1.35c.54-.63,1.15-1.29,1.83-2l2-2,1.35-1.36H413a34.9,34.9,0,0,0-6.23,6.91Zm.94,6.37q2-2.72,4-5.29a49.17,49.17,0,0,1,4.26-4.87v-.14h-.13c-.09,0-.14,0-.14.07s0,.07-.13.07c-.73.54-1.51,1.2-2.37,2a18.23,18.23,0,0,0-2.37,2.58,33,33,0,0,0-2,2.84A8.56,8.56,0,0,0,408.16,602.1Zm.82-5.29a13.36,13.36,0,0,1,1.15-1.49c.4-.45.79-.9,1.15-1.35-.27.27-.73.74-1.36,1.42S409,596.54,409,596.81Zm15.57,13a58.12,58.12,0,0,1-4.27,7c-1.58,2.21-3.22,4.4-4.94,6.57a2.83,2.83,0,0,0-.47.61,3.34,3.34,0,0,0-.34.74,39.39,39.39,0,0,1,2.71-3.05,42,42,0,0,0,3.38-4,38,38,0,0,0,2.78-4.2A7.64,7.64,0,0,0,424.55,609.81Zm-9.75,8.13a8,8,0,0,0,1.62-1.9c.45-.72.91-1.49,1.36-2.3L416,616A5.61,5.61,0,0,0,414.8,617.94Zm.68,2.44-.14-.14A.13.13,0,0,0,415.48,620.38Zm1.49-1.63c.45-.72.94-1.44,1.49-2.16s1-1.45,1.48-2.17l-3.11,4.2v.13Zm3.11-4.74a.56.56,0,0,0-.14.41Zm2,3.39h.14v-.14Z"/><path class="cls-1" d="M456.37,536.28a1,1,0,0,1,.95-.81,5.23,5.23,0,0,1,3,1,11.27,11.27,0,0,1,2.64,2.57,16.37,16.37,0,0,1,1.9,3.32,8.33,8.33,0,0,1,.74,3.12,30,30,0,0,1-1,6.23c-.68,2.8-1.47,5.75-2.37,8.87s-1.81,6.09-2.71,8.94-1.58,5.07-2,6.7c-.54,1.81-1.13,3.63-1.76,5.48s-1.22,3.68-1.76,5.49l-7.32,26.14a128.69,128.69,0,0,0-3.11,13.27,76.43,76.43,0,0,0-1.22,13.54,21.11,21.11,0,0,0,.34,3.79,36.42,36.42,0,0,0,.88,3.79c.18.82.4,1.65.68,2.51a13.21,13.21,0,0,1,.54,2.5,3.57,3.57,0,0,0-.61.07,2.85,2.85,0,0,1-.61.07,8.16,8.16,0,0,1-4.94-1.63,15.42,15.42,0,0,1-3.73-3.79,12.08,12.08,0,0,1-2.3-5.69,48.13,48.13,0,0,1-.41-6.22,90.21,90.21,0,0,1,1.49-14.9q1.49-8.67,3.66-17.81t4.6-17.74q2.44-8.6,4.47-14.83.54-1.89,2.37-6.64t3.73-9.88q1.89-5.14,3.38-9.41a24.35,24.35,0,0,0,1.49-5.35A5.16,5.16,0,0,0,456.37,536.28Zm-16.79,95.47a7.27,7.27,0,0,0,.41-1.42c.09-.49.18-1,.27-1.42l1.08-6.23c.36-2.08.81-4.15,1.36-6.23q1.21-4.87,2.37-9.75t2.5-9.75q1.89-6.91,4.13-13.61t3.86-13.61a19.86,19.86,0,0,0-1.22,3q-.81,2.37-1.83,5.62t-2.09,7q-1.1,3.79-2.1,7.24c-.68,2.31-1.27,4.4-1.76,6.3s-.88,3.25-1.16,4.06q-2,7.05-3.58,14.22A120.49,120.49,0,0,0,439.58,631.75Zm17.07-65a1.78,1.78,0,0,0-.68,1.49Zm.4-1.22-.27-.14a4.91,4.91,0,0,0-.13,1.36Zm.68-2.3-.14-.14v.14Z"/><path class="cls-1" d="M484.68,603.58l1.08-1.08-.14.81.41-.81h-.27l.27-.4v.4l.27-.54h.14l.54-1,.27.14a54.39,54.39,0,0,1-4.67,9.07q-2.77,4.34-5.49,8.67-1.48,2.43-3,4.94T471,628.64c-1.36,2-3,4.26-4.94,6.84s-3.68,4.71-5.22,6.43a2.75,2.75,0,0,1-1.29.81,6.56,6.56,0,0,1-1.42.14,7.41,7.41,0,0,1-4.87-1.56,5.68,5.68,0,0,1-1.9-4.67,59,59,0,0,1,1.08-11.17c.73-3.75,1.58-7.34,2.58-10.77q1.08-4.07,2-8.13a50.63,50.63,0,0,0,1.22-8.26v-.54a2.6,2.6,0,0,0-.2-1,2.52,2.52,0,0,1-.21-1,.66.66,0,0,1,.48-.61c.31-.13.56-.25.74-.34a16.41,16.41,0,0,1,7.65,3.12q3.18,2.43,3.18,7.31a25.28,25.28,0,0,1-1.08,7.45q-1.08,3.52-2.17,7.18l-3,10c0,.09,0,.13-.07.13s-.07,0-.07.14v.13l.14.27a86.79,86.79,0,0,0,5.34-7.38q2.5-3.85,5.08-7.65a40.08,40.08,0,0,1,3.25-4.33c1.18-1.36,2.31-2.75,3.39-4.2a13.69,13.69,0,0,0,1.69-2.44,10.91,10.91,0,0,1,1.83-2.43l-.68,1.21,1-1.08q-1.62,2.71-3.45,5.35a36.88,36.88,0,0,0-3.19,5.62l1.36-1.62a12.33,12.33,0,0,0,1.22-1.77,36.45,36.45,0,0,0,2-3.65,11.91,11.91,0,0,1,2.37-3.39Zm-26.82,33.59h.27q1.49-6,3.19-11.78t3.31-11.78a16.83,16.83,0,0,0-1.76,4.53c-.36,1.58-.77,3.14-1.22,4.68q-1.08,3.51-2.16,7.11A49.43,49.43,0,0,0,457.86,637.17Zm9.48-62.57.68.14v1a2.69,2.69,0,0,0,1-.68l1.35.68-.27.95,1.63.27v1.35l.67-.14a2.8,2.8,0,0,1,1.36,2.31,14.6,14.6,0,0,1-.75,4.67,14.59,14.59,0,0,0-.74,4.67,13.76,13.76,0,0,0,.27,2.71,13.84,13.84,0,0,1,.27,2.71,2.42,2.42,0,0,1-1.22.4,2.3,2.3,0,0,1-1.29-.4,1.64,1.64,0,0,0-1.28-.27,7.6,7.6,0,0,1-2.31-2.1,22,22,0,0,1-2-3.12,16.79,16.79,0,0,1-1.35-3.38,11.7,11.7,0,0,1-.48-3.18,14,14,0,0,1,.27-2.31,17.67,17.67,0,0,1,.82-3,13,13,0,0,1,1.28-2.64,2.09,2.09,0,0,1,1.7-1.15ZM463,633.11a7.47,7.47,0,0,1,.68-.61c.27-.23.49-.43.67-.61q4.06-6.09,8.13-12t8.26-12l-3.25,3.52a19.43,19.43,0,0,0-2.71,3.66c-1.17,1.89-2.37,3.77-3.59,5.62s-2.42,3.72-3.59,5.62a28.32,28.32,0,0,1-2.37,3.31A17.82,17.82,0,0,0,463,633.11Zm2-21h-.27v.81a.45.45,0,0,0,.13-.34A1.11,1.11,0,0,1,465,612.12Zm4.33,15.3a1,1,0,0,0-.74.54,8.59,8.59,0,0,1-.48.81Zm1.76-2.3c-.9.18-1.35.59-1.35,1.22v.27Zm3.8-5.28.54-.41q.27-.54.54-1a8.4,8.4,0,0,0,.54-1.15,5.38,5.38,0,0,1-.74,1.29A12.74,12.74,0,0,0,474.93,619.84Zm3.52-4.34.4-.4a.54.54,0,0,1-.4-.14c.18-.36.33-.7.47-1s.29-.66.47-1l-1.62,2.3.68-.27Zm2.84-4.74H481l.41-.67v-.55a9.69,9.69,0,0,0-1.22,2l.54-.28.27-.54a.79.79,0,0,1,.13.54A.76.76,0,0,0,481.29,610.76Zm-.54,1,.4-.41h-.27A.58.58,0,0,0,480.75,611.71Zm.81-1.49h-.13v.27A.43.43,0,0,0,481.56,610.22Zm.95-1.76a1.78,1.78,0,0,1,.14-.74,2.27,2.27,0,0,0,.13-.75l-1.22,2.3.54-.27v.41l.27-.41h-.27Zm0,0v.41l.27-.41a.73.73,0,0,1,.14-.54h-.14v.54Zm2.17-4.88a1.57,1.57,0,0,1-.55,1.09l.55-.14.13-.54Zm.4.82-.27.13-.13.41Zm-.27-1.63a7,7,0,0,0,.41-.95c.09-.27.18-.58.27-.94l.27.13A4.89,4.89,0,0,1,484.81,602.77Zm1.36-.81v-.14H486v.28Zm.13-.54v.4h-.13Zm.14.4h-.14V602Z"/><path class="cls-1" d="M484.13,629.86a8.35,8.35,0,0,1-5.07-1.76,5.59,5.59,0,0,1-2.37-4.74,23.15,23.15,0,0,1,.4-4.4c.27-1.4.54-2.82.81-4.27q1.1-5.82,2.44-11.71a52.94,52.94,0,0,0,1.36-11.85c0-.45,0-.88-.07-1.29a2,2,0,0,0-.61-1.15,3.23,3.23,0,0,1-.48-.61,1.08,1.08,0,0,0-.6-.48l.13-.4c-.27-.18-.63-.41-1.08-.68a1.13,1.13,0,0,1-.68-.95c0-.54.43-.94,1.29-1.22a7.06,7.06,0,0,1,2-.4,9.33,9.33,0,0,1,2.51.4,8.13,8.13,0,0,1,2.37,1.09A11.74,11.74,0,0,1,492.67,597a28.66,28.66,0,0,1-.61,4.54q-.62,3.18-1.29,6.43t-1.9,8.26l.14.54q5.69-8.4,11.78-16.59a81.91,81.91,0,0,1,14.08-14.69,11.77,11.77,0,0,1,2-1.36,5,5,0,0,1,2.37-.54,8.82,8.82,0,0,1,3,.75,5.6,5.6,0,0,1,2.57,1.69,3.24,3.24,0,0,1,.68,1.56,11.16,11.16,0,0,1,.13,1.69,11.33,11.33,0,0,1-.27,2.44c-.18.81-.36,1.58-.54,2.3-.27,1-.56,2.1-.88,3.32s-.65,2.46-1,3.72-.7,2.51-1,3.73a20.23,20.23,0,0,1-1,3l.14.54a9.32,9.32,0,0,1,1.08-1.15c.36-.31.77-.69,1.22-1.15l8.74-8.73a89.88,89.88,0,0,1,9.41-8.2l8-6a3.57,3.57,0,0,1,2.44-.82,13.13,13.13,0,0,1,7,3.52,3.1,3.1,0,0,1,.68,2,25.06,25.06,0,0,1-1.49,5.62q-1.5,4.39-3.39,9.54c-1.27,3.44-2.48,6.75-3.66,10s-2,5.53-2.43,7c-.64,2.08-1.22,4.16-1.76,6.23s-1.13,4.15-1.77,6.23a3,3,0,0,0-.13,1c0,.72.22,1.15.68,1.28s.67.52.67,1.16a1.41,1.41,0,0,1-1.35,1.55,15.37,15.37,0,0,1-2.3.21,6.76,6.76,0,0,1-2.37-.48,11.84,11.84,0,0,1-2.44-1.22,7.4,7.4,0,0,1-2-1.82,4.61,4.61,0,0,1-1-2.31,11.07,11.07,0,0,1-.14-2,41.77,41.77,0,0,1,.48-6.09q.47-3.25,1.28-6.64t1.76-6.57c.63-2.12,1.27-4.08,1.9-5.89q1.08-3.1,2.37-6l2.64-5.82a40.83,40.83,0,0,0-7.52,6.1c-2.39,2.43-4.71,5-7,7.71s-4.45,5.44-6.57,8.2-4.22,5.26-6.3,7.51a4,4,0,0,1-1.62,1.29,4.32,4.32,0,0,1-1.29.2c-.4,0-.81,0-1.22-.06a4.07,4.07,0,0,0-1.55.2l-3.93-2.44a2.66,2.66,0,0,1-1.15-1.56,8.44,8.44,0,0,1-.2-2,27.49,27.49,0,0,1,.4-4.47c.27-1.62.61-3.27,1-4.94s.85-3.3,1.35-4.88,1-3,1.42-4.26c.27-.73.59-1.47.95-2.24a12.08,12.08,0,0,0,.81-2.23,1.52,1.52,0,0,0,.14-.68.94.94,0,0,1,.27-.68h-.14a14.6,14.6,0,0,1-2.43,2.64,18,18,0,0,0-2.44,2.51q-2.85,3.52-5.35,7.25T498,613.4q-2.44,3.74-5,7.52t-5.42,7.18A4.39,4.39,0,0,1,484.13,629.86Zm-1.08-7h.54q2.85-11.93,5.28-24l-.4-.14q-1.37,6.09-2.64,12C485,614.74,484,618.75,483.05,622.82ZM500,607.65l.27-.54A.78.78,0,0,0,500,607.65Zm1.35-6.37a.78.78,0,0,0-.27.54Zm9.35,9.48-.27.54h.13l.27-.54Zm.4-1.49v-.13H511Zm.54-2.43c-.09,0-.13,0-.13.13s0,.14.13.14Zm.14-.82h.14l.13-.4Zm.54-1.55c0-.05.05-.07.14-.07v-.14l-.27.27C512.26,604.53,512.3,604.51,512.3,604.47Zm.14,10.08-.14.14h.14Zm.4-1.62H513v-.68A1.52,1.52,0,0,0,512.84,612.93Zm.82-2-.27-.14L513,612Zm0-1.36v.14l.13-.14Zm.67-10.15c.54-1.45,1.18-3,1.9-4.54a15.68,15.68,0,0,0,1.35-4.67q-1.08,2.3-2,4.67a42.62,42.62,0,0,0-1.62,4.94Zm-.27,9.07h-.13v.41h.13Zm.14-1h.13v-.4A.54.54,0,0,0,514.2,607.51Zm.27,7.32.54.13a8.8,8.8,0,0,0,1-1.9q1.49-5.14,3-10.08t3-10.09c.18-.73.34-1.4.48-2s.29-1.26.47-1.89l-.41-.14Zm.27-8.81h-.14a.4.4,0,0,0,.14.27Zm.27-1.08h.27v-1.36Zm1-2.3-.14-.14a5.15,5.15,0,0,1-.27.48,3.92,3.92,0,0,0-.27.47A3.91,3.91,0,0,0,516,602.64Zm.54-2.44a10.19,10.19,0,0,0,1.49-3.39,26.74,26.74,0,0,1,1.08-3.52,23.92,23.92,0,0,0-1.49,3.39C517.13,597.94,516.77,599.12,516.5,600.2Zm3.39-8.94h-.28l.14.41Zm.94,10.43.14-.14h-.14Zm17.88,20.45-.14-.14A.13.13,0,0,0,538.71,622.14Zm.27-2h-.13v.4H539Zm.54-2.71-.4,1.76h.27a7.1,7.1,0,0,1,.06-.88A5.66,5.66,0,0,0,539.52,617.4Zm0,0a7.46,7.46,0,0,0,1.09-4.2Zm10.57-27.49-.27-.14q-2.85,5.68-5.29,11.44a78,78,0,0,0-3.92,11.85,10.51,10.51,0,0,0,1.08-2.3l.81-2.44q1.08-2.7,2-5.48c.63-1.85,1.36-3.68,2.17-5.48.54-1.27,1.13-2.51,1.76-3.73A32,32,0,0,0,550.09,589.91Zm-9.35,34h.14v-.14Zm.14-.41.4-.54H541Zm.4-1.49.14.14v-.41A.4.4,0,0,0,541.28,622Zm.54,9.21.28.14a33.67,33.67,0,0,0,1.28-4.67c.32-1.58.7-3.14,1.15-4.68.82-3.07,1.74-6.11,2.78-9.14s2.14-6,3.32-9L556,589.64a2.31,2.31,0,0,0,.28-1,4.32,4.32,0,0,1,.13-1h-.27q-2.71,6.51-5.35,12.8a131,131,0,0,0-4.67,13.07q-1.36,4.34-2.64,8.8A48.55,48.55,0,0,0,541.82,631.21Zm11.92-43.06-.27-.14q-2.43,6.09-5.21,12a68,68,0,0,0-4.4,12.25c-.27,1-.52,2.08-.75,3.25a14,14,0,0,1-1,3.25,8.2,8.2,0,0,0,1-2.44,23.58,23.58,0,0,1,.75-2.43c.9-2.53,1.78-5,2.64-7.52s1.78-5,2.77-7.51q1.08-2.72,2.31-5.35C552.39,591.74,553.11,590,553.74,588.15Zm-7.58,33.58H546a.56.56,0,0,0,.14.41h.13A.56.56,0,0,1,546.16,621.73Zm.13-12.05.14.13v-.13Zm.28-.68.13.14V609Zm.13,11.11h-.13l.13.13Zm1.08-3.12c0,.09,0,.14-.06.14s-.07,0-.07.13A.38.38,0,0,0,547.78,617Zm.27-1-.13-.13a.52.52,0,0,1-.14.4Zm-.13-10.83v.14l.13-.14Zm.4-.68h-.13v.14C548.28,604.67,548.32,604.62,548.32,604.53Zm.14,10.09s0-.07.14-.07v-.13l-.28.27C548.41,614.69,548.46,614.67,548.46,614.62Zm.41-11.44a.12.12,0,0,0-.14.13C548.82,603.31,548.87,603.27,548.87,603.18Zm0,10.43h-.14v.27h.14Zm.13-.55h.14v-.13A.12.12,0,0,0,549,613.06Zm2-5.41-.27-.14v.41Zm.55-1.9a.53.53,0,0,0-.14.41h.14Zm.67-.81-.27-.27a.38.38,0,0,0-.13.27Zm1.09-3.25h-.14a.61.61,0,0,1-.13.41Zm.27-1.22-.14.14h.14Zm.13-.68.14.14v-.14Zm.41-.67-.14.13h.14Zm.13-.55h.14v-.13Zm.55-.94-.14.13h.14Zm.81-2.44c0,.09,0,.13.13.13v-.13Zm1-2h-.14v.27A.36.36,0,0,1,556.59,593.16Z"/><path class="cls-1" d="M597.35,617.8a3.93,3.93,0,0,1,.68-1.15,7.62,7.62,0,0,0,.81-1.15c-.73,1.81-1.67,3.84-2.85,6.1s-2.46,4.49-3.86,6.7-2.86,4.31-4.4,6.3a28.78,28.78,0,0,1-4.47,4.74,28.67,28.67,0,0,1-3.72-1.56c-.95-.5-1.42-1.69-1.42-3.59a58.94,58.94,0,0,1,1-10.9c.68-3.57,1.38-7.15,2.1-10.77l-4.6,4.74c-.73.73-1.52,1.58-2.37,2.58s-1.76,1.94-2.71,2.84a16.28,16.28,0,0,1-3,2.3,6.53,6.53,0,0,1-3.38.95,8,8,0,0,1-2.71-.54,11,11,0,0,1-2.78-1.49,8.62,8.62,0,0,1-2.1-2.17,4.77,4.77,0,0,1-.81-2.71,21.19,21.19,0,0,1,1.42-7,48,48,0,0,1,3.66-7.86,58.91,58.91,0,0,1,4.87-7.17,27,27,0,0,1,5.08-5.08,28,28,0,0,1,4.47-2.64,11.6,11.6,0,0,1,5-1.15,9,9,0,0,1,4.67,1.22,22.64,22.64,0,0,1,4,3,1.59,1.59,0,0,1,.54,1.09,2.07,2.07,0,0,1-.27.81l-3.93-1.08a17.56,17.56,0,0,0-6.43,3.79,36,36,0,0,0-5,5.75,45.89,45.89,0,0,0-3.93,6.78q-1.7,3.59-3.18,6.83l.27.28,2.17-1.63,13-11.65a12.82,12.82,0,0,0,2.71-3.45,6.08,6.08,0,0,1,3.25-2.78l.13,1.36-.4.13c-.19.28-.25.43-.21.48s-.06.2-.34.47l.41-.13.14-.68.4-.27a.86.86,0,0,1,.81-.54,1.1,1.1,0,0,1,.68.4l-.13,1,.54-.27v-.13l.68.27c-.55,1.71-1.11,3.38-1.7,5s-1.2,3.25-1.83,4.87l-.13.14c.09,0,.13,0,.13-.14.28-.27.41-.45.41-.54.72-1.53,1.38-3.05,2-4.54s1.24-2.95,2-4.4c.81.18,1.22.59,1.22,1.22a4.64,4.64,0,0,1-.21,1.36c-.13.45-.29.9-.47,1.35-.45,1.26-1.11,3.11-2,5.55s-1.72,5-2.58,7.65-1.6,5.2-2.23,7.59a23.42,23.42,0,0,0-1,5.21,8.74,8.74,0,0,0,2.37-2.1,30.53,30.53,0,0,1,2.1-2.37h.27a42.45,42.45,0,0,1-2.91,3.66,14.7,14.7,0,0,0-2.51,3.93h-.13v.13a.12.12,0,0,0,.13-.13,41.45,41.45,0,0,0,3.52-4c1.09-1.4,2.17-2.78,3.26-4.13a14.35,14.35,0,0,0,.81-1.22,6.29,6.29,0,0,1,.94-1.22l.68-.67a56.72,56.72,0,0,1-5,7.11,38.83,38.83,0,0,0-4.74,7.24l4.34-5-1.22,2.3.94-.67.14.54a3.08,3.08,0,0,1,.54-1.09,7.14,7.14,0,0,0,.68-1.08h.13v-.14l-.13.14h-.27a10.48,10.48,0,0,1,.54-1.35,3.31,3.31,0,0,1,1-1.09v.54l.27-.54.41-.27.27-.54a4.14,4.14,0,0,1,.88-1.49,4.45,4.45,0,0,0,.88-1.49,7.43,7.43,0,0,1,.61-1,9,9,0,0,0,.61-1h-.14l.27-.54h-.13l.81-1.49.13.54a5,5,0,0,1,.34-.95,6.88,6.88,0,0,1,.48-.81h-.14l.41-.27a5.35,5.35,0,0,0,.54-1.22Zm-36.16-6.63a.24.24,0,0,1-.07.2.28.28,0,0,0-.07.21h.14Zm.41-1.08c.27-.28.4-.46.4-.55q1.35-2.29,2.57-4.6a48.78,48.78,0,0,1,2.71-4.47c.18-.27.5-.7,1-1.29a2.63,2.63,0,0,0,.68-1.42l-.27.54a18.05,18.05,0,0,0-1.76,2.24,36.17,36.17,0,0,0-2.1,3.38c-.68,1.22-1.31,2.4-1.9,3.52s-1,2-1.28,2.65a.88.88,0,0,0-.28.67Zm1.76,2.16.4-1a.45.45,0,0,0-.27.41.78.78,0,0,1-.27.54Zm.27,6.37a.78.78,0,0,0-.14.54h.14Zm.54-1.22a82.26,82.26,0,0,1,4.54-10.16,51.91,51.91,0,0,1,6.16-9.21,11,11,0,0,0-2.91,2.85,44.47,44.47,0,0,0-3,4.4,52.38,52.38,0,0,0-2.51,4.67c-.72,1.54-1.26,2.8-1.62,3.79a16.19,16.19,0,0,0-.68,2.3c-.18.82-.36,1.58-.54,2.31A2.93,2.93,0,0,0,564.17,617.4Zm4.47-14.9q-1.36,1.9-2.44,3.66a31.29,31.29,0,0,0-2,3.93c.72-1.27,1.47-2.49,2.23-3.66s1.51-2.39,2.24-3.66Zm.68-5.14.4-.28h-.13Zm.94,3.11a.4.4,0,0,1-.27.14h.27Zm.54-1c-.09,0-.13.05-.13.14h.13Zm13.41,24.24h.14v-.27h-.14Zm.54,12.73a.24.24,0,0,0-.27.27Zm0-15.43.14.27v-.41Zm.14,15.3a3.23,3.23,0,0,1,.61-.48.8.8,0,0,0,.34-.74Zm.68-18.28a1.48,1.48,0,0,0-.14.67h.14Zm0-.55.27-.54h-.14Zm1.21-3.38a18.62,18.62,0,0,0-.94,2.71,3.14,3.14,0,0,0,.67-1.36Zm-.94,21.53c.09,0,.13,0,.13-.07s0-.06.14-.06S586,635.68,585.84,635.68Zm.81-1.08a.89.89,0,0,1,.07-.41,1.05,1.05,0,0,0,.06-.4L586,635Zm1.08-34.27a4.08,4.08,0,0,0-1.08,2Zm-1,34.13.14-.13C586.92,634.42,586.87,634.46,586.78,634.46Zm.28-21.4a.54.54,0,0,0-.14.41Zm.4,21.13c-.09,0-.13,0-.13.07s-.05.07-.14.07h.27Zm0-22.48a1.1,1.1,0,0,0-.13.68l.13-.27Zm.95,21.26h-.14l-.4.27H588Zm1.08-31.55c-.45.18-.67.4-.67.68v.13a.38.38,0,0,0,.13.27Zm.14-.81a1.48,1.48,0,0,0-.14.67A1.48,1.48,0,0,0,589.63,600.61Zm1.08,28.84a.78.78,0,0,0,.14-.54A.78.78,0,0,0,590.71,629.45Z"/><path class="cls-1" d="M606.69,635.41a8,8,0,0,1-5.48-2.3,7.11,7.11,0,0,1-2.51-5.42,39,39,0,0,1,.76-6.84c.5-2.75,1.14-5.6,1.92-8.53s1.56-5.78,2.34-8.53,1.44-5.08,2-7q.82-2.56,1.58-5.48a22.5,22.5,0,0,0,.76-5.62,3.75,3.75,0,0,0-.14-1c-.09-.31-.18-.65-.27-1,.18-.45.63-.68,1.34-.68a2.45,2.45,0,0,1,.93.34l.93.47a10,10,0,0,1,3.94,3.66,9.81,9.81,0,0,1,1.53,5.28,38.22,38.22,0,0,1-.88,7.31q-.88,4.34-2.1,8.87c-.81,3-1.7,6-2.64,8.87s-1.74,5.33-2.37,7.32l.27.13q5.68-7.85,11.24-15.64t11.92-15.1l4.87-5.69q2.45-2.84,5-5.55c.54-.54,1.08-1.06,1.63-1.56a4.34,4.34,0,0,1,1.89-1,9.89,9.89,0,0,1,2.24.67,13.15,13.15,0,0,1,2.5,1.43,10.6,10.6,0,0,1,2,1.89,3.48,3.48,0,0,1,.82,2.24,7.89,7.89,0,0,1-.34,1.89q-.35,1.23-.81,2.64c-.32.95-.64,1.86-1,2.71s-.57,1.52-.75,2q-1.35,3.52-3.65,9.88t-4.47,13.27Q639.6,626.2,638,632.5a43.64,43.64,0,0,0-1.56,9.68,3.45,3.45,0,0,0,1.63,3.25,1.2,1.2,0,0,1-1.35,1.36,9.1,9.1,0,0,1-4.68-1.09,7.63,7.63,0,0,1-2.84-2.91,11.89,11.89,0,0,1-1.35-4.13,32,32,0,0,1-.34-4.74,38.12,38.12,0,0,1,.67-6.91c.46-2.43,1-4.89,1.7-7.38s1.42-4.94,2.23-7.38,1.54-4.69,2.17-6.77a59,59,0,0,1,2.16-6c.82-1.89,1.58-3.83,2.31-5.82a1.7,1.7,0,0,1-.61.4,1.93,1.93,0,0,0-.61.41,83,83,0,0,0-8.26,10q-3.79,5.34-7.18,10.76l-2.78,4.54q-1.7,2.78-3.58,5.69T612,630.87a25.09,25.09,0,0,1-3.18,3.73A3.25,3.25,0,0,1,606.69,635.41Zm4.2-6.23.27-.54A.78.78,0,0,0,610.89,629.18Zm4.47-11.1a8,8,0,0,0-1.15,1.42c-.32.49-.61,1-.88,1.42a6.36,6.36,0,0,0,1.08-1.42A9.5,9.5,0,0,1,615.36,618.08Zm-1.08,6.36.54-.68a3.92,3.92,0,0,1,.27-.47,4.91,4.91,0,0,0,.27-.47,5.87,5.87,0,0,0-.61.74A3,3,0,0,0,614.28,624.44Zm.81-2.57L615,622C615,622,615.09,622,615.09,621.87Zm1.49-5.42a2.26,2.26,0,0,1,.61-1,4.7,4.7,0,0,0,.74-.81,14.29,14.29,0,0,0,1.42-2q.61-1,1.29-2.1a100.56,100.56,0,0,1,10.16-12.87q5.55-6,10.7-12.46l.4-.54-.27-.27q-5.14,5.55-10.09,11.24a139.65,139.65,0,0,0-9.27,11.92c-1.09,1.53-2.19,3.07-3.32,4.6a29.39,29.39,0,0,0-2.91,4.88Zm-.27,3.79v-.13l-.14.13Zm.27.68a17.71,17.71,0,0,0,1.22-1.63c.36-.54.72-1.12,1.08-1.76A15.26,15.26,0,0,0,616.58,620.92Zm2-4.88h-.41a.78.78,0,0,1-.27.55h.68l.13-.41Zm2-1.49a11.55,11.55,0,0,1-.95,1.36,4.8,4.8,0,0,0-.81,1.49A11,11,0,0,0,620.64,614.55Zm-1.22.41-.27-.13v.4a.53.53,0,0,0,.14.41.79.79,0,0,0,.13-.54H620A.78.78,0,0,0,619.42,615Zm-.27,3.39v.27l.14-.14ZM620,614h-.27v.27a.55.55,0,0,0,.14.41V615c0,.09,0,.14.13.14v-.82a.56.56,0,0,0,.41-.13h-.27A.13.13,0,0,1,620,614Zm.68-.81-.27-.14v.41a.73.73,0,0,0,.14.54c0-.45.18-.67.54-.67A.56.56,0,0,0,620.64,613.2Zm.41-1h-.14v.27a2,2,0,0,1,.14.82,1.94,1.94,0,0,0,.13-.82l.27-.13h-.27C621.09,612.39,621.05,612.34,621.05,612.25Zm.54,1.22.13-.54-.4.81Zm6.36-8.53.54-.81h.28l.67-.68a9.64,9.64,0,0,1,.82-1.15,13.71,13.71,0,0,1,.94-1.15c.09-.18.32-.54.68-1.09a13.06,13.06,0,0,1,1.29-1.62l1.42-1.56a4.73,4.73,0,0,1,.95-.88l-.27-.13v-.55c-.73.82-1.43,1.63-2.1,2.44a12.29,12.29,0,0,1-2.37,2.17,13.77,13.77,0,0,1,1.49-2c.81-1,1.69-2.06,2.64-3.19s1.87-2.21,2.77-3.25,1.54-1.78,1.9-2.23A140.49,140.49,0,0,0,630,599.86q-4.46,5.49-8.53,11.44v.41l.14.54a28,28,0,0,1,1.76-2.5l1.89-2.37a10.48,10.48,0,0,1-.54,1.35l.95-.54h.27l.75-1a5.83,5.83,0,0,0,.61-1.15l.4-.27a1.54,1.54,0,0,1,.54-.68Zm-4.19,5.15-1.09,1.62a3.14,3.14,0,0,1,.81-.54V611A1.3,1.3,0,0,0,623.76,610.09Zm0,.94-.14.14v.27A.55.55,0,0,0,623.76,611Zm10.69,22.35h.14V633h-.14Zm1.09-4.74-.95,3.38.41.14a8.83,8.83,0,0,0,.33-1.76C635.38,629.86,635.45,629.27,635.54,628.64Zm14.62-41.44-.4-.14q-2.18,4.34-4.2,9.55t-3.86,10.7q-1.83,5.49-3.39,11t-2.77,10.09a3.14,3.14,0,0,0,.54-.81,86.75,86.75,0,0,0,3-9.35q1.22-4.74,2.84-9.34,1.9-5.55,4.13-10.84T650.16,587.2Zm-13.4,7.18a5.9,5.9,0,0,0,.67-.82,2,2,0,0,1,.82-.67,2.14,2.14,0,0,1,.67-.82,1,1,0,0,0,.41-.94l1.49-2-5.28,5.83a2.14,2.14,0,0,1,.54-.41A1.5,1.5,0,0,1,636.76,594.38Zm2.16,6.23.14-.14h-.14Zm1-2.58c0,.09,0,.14-.07.14s-.06,0-.06.13h.13Zm.54-1.76-.4,1,.4.14Zm0,0,.41-.27c.63-1.35,1.29-2.71,2-4.06s1.38-2.71,2.1-4.06v-.68a35.42,35.42,0,0,0-2.37,4.47C641.83,593.2,641.13,594.74,640.41,596.27Zm6.1-6.63a15.09,15.09,0,0,0-1.15,2.16c-.32.73-.61,1.49-.88,2.3.36-.72.72-1.46,1.08-2.23S646.24,590.36,646.51,589.64Zm.94-2.17-.13-.14v.55Z"/></g></g></svg>